<svg width="14" height="18" viewBox="0 0 14 18" fill="none" xmlns="http://www.w3.org/2000/svg">
<path d="M9.00075 8.625V8.25H4.50075V8.625C4.50075 8.832 4.33275 9 4.12575 9H3.75075V13.5H4.12575C4.33275 13.5 4.50075 13.668 4.50075 13.875V14.25H9.00075V13.875C9.00075 13.668 9.16875 13.5 9.37575 13.5H9.75075V9H9.37575C9.16875 9 9.00075 8.832 9.00075 8.625ZM13.1258 0H4.87575C4.8585 0 4.84425 0.0075 4.82775 0.00975C4.8105 0.012 4.79625 0.015 4.77975 0.0195C4.71525 0.03675 4.65525 0.0645 4.6095 0.11025L0.11025 4.6095C0.0645001 4.65525 0.03675 4.71525 0.0195 4.779C0.015 4.7955 0.012 4.8105 0.00975001 4.827C0.00750001 4.8435 0 4.85775 0 4.875V17.625C0 17.832 0.168 18 0.375 18H13.125C13.332 18 13.5 17.832 13.5 17.625V0.375C13.5008 0.168 13.3328 0 13.1258 0ZM4.50075 1.28025V4.5H1.281L4.50075 1.28025ZM11.2508 8.625C11.2508 8.832 11.0828 9 10.8758 9H10.5008V13.5H10.8758C11.0828 13.5 11.2508 13.668 11.2508 13.875V15.375C11.2508 15.582 11.0828 15.75 10.8758 15.75H9.37575C9.16875 15.75 9.00075 15.582 9.00075 15.375V15H4.50075V15.375C4.50075 15.582 4.33275 15.75 4.12575 15.75H2.62575C2.41875 15.75 2.25075 15.582 2.25075 15.375V13.875C2.25075 13.668 2.41875 13.5 2.62575 13.5H3.00075V9H2.62575C2.41875 9 2.25075 8.832 2.25075 8.625V7.125C2.25075 6.918 2.41875 6.75 2.62575 6.75H4.12575C4.33275 6.75 4.50075 6.918 4.50075 7.125V7.5H9.00075V7.125C9.00075 6.918 9.16875 6.75 9.37575 6.75H10.8758C11.0828 6.75 11.2508 6.918 11.2508 7.125V8.625Z" fill="#006BA6"/>
</svg>
