<?xml version="1.0" encoding="UTF-8"?>
<svg width="45px" height="45px" viewBox="0 0 45 45" version="1.1" xmlns="http://www.w3.org/2000/svg" xmlns:xlink="http://www.w3.org/1999/xlink">
    <!-- Generator: Sketch 51.3 (57544) - http://www.bohemiancoding.com/sketch -->
    <title>Group</title>
    <desc>Created with Sketch.</desc>
    <defs></defs>
    <g id="Page-1" stroke="none" stroke-width="1" fill="none" fill-rule="evenodd">
        <g id="Group">
            <circle id="Oval" fill="#FFFFFF" cx="22.5" cy="22.5" r="22.5"></circle>
            <g id="map-layers_active" transform="translate(11.000000, 10.000000)" fill="#76881D" fill-rule="nonzero">
                <path d="M10.5743,21.0509 L2.8385,16.4074 C2.5837,16.2544 2.26512,16.256 2.01185,16.4108 L0.38246,17.4073 C-0.128679,17.7201 -0.125613,18.4633 0.388286,18.7718 L10.5749,24.8861 C10.8275,25.0379 11.1434,25.0379 11.396,24.8861 L21.5826,18.7718 C22.0962,18.4633 22.0996,17.7198 21.5884,17.4073 L19.9591,16.4108 C19.7055,16.2556 19.3869,16.2544 19.1324,16.4074 L11.3954,21.0509 C11.1428,21.2027 10.8269,21.2027 10.5743,21.0509 Z" id="Shape"></path>
                <path d="M16.2765,12.5238 L14.9271,13.3339 L11.3954,15.4536 C11.1428,15.6053 10.8269,15.6053 10.5743,15.4536 L7.0426,13.3339 L5.69316,12.5238 L2.9495,10.8769 C2.6947,10.7239 2.37612,10.7254 2.12285,10.8803 L0.38246,11.9449 C-0.128679,12.2576 -0.125613,13.0009 0.388286,13.3093 L2.41782,14.5276 L3.76726,15.3376 L10.5743,19.4237 C10.8269,19.5755 11.1428,19.5755 11.3954,19.4237 L18.203,15.3376 L19.5525,14.5276 L21.582,13.3093 C22.0956,13.0009 22.099,12.2573 21.5878,11.9449 L19.8474,10.8803 C19.5939,10.7251 19.2753,10.7239 19.0208,10.8769 L16.2765,12.5238 Z" id="Shape"></path>
                <path d="M3.87698,9.80685 L7.03518,11.7024 L8.38463,12.5125 L10.5736,13.8264 C10.8263,13.9781 11.1421,13.9781 11.3947,13.8264 L13.5837,12.5125 L14.9332,11.7024 L18.0914,9.80685 L19.4408,8.99675 L21.581,7.71201 C22.0946,7.40355 22.098,6.65999 21.5869,6.34754 L11.4003,0.117283 C11.1448,-0.0390943 10.8232,-0.0390943 10.5678,0.117283 L0.381484,6.34785 C-0.129656,6.6606 -0.126589,7.40385 0.387309,7.71231 L2.52753,8.99706 L3.87698,9.80685 Z" id="Shape"></path>
            </g>
        </g>
    </g>
</svg>