<svg width="22" height="25" viewBox="0 0 22 25" fill="none" xmlns="http://www.w3.org/2000/svg">
<path d="M10.5743 21.0509L2.8385 16.4074C2.5837 16.2544 2.26512 16.256 2.01185 16.4108L0.38246 17.4073C-0.128679 17.7201 -0.125613 18.4633 0.388286 18.7718L10.5749 24.8861C10.8275 25.0379 11.1434 25.0379 11.396 24.8861L21.5826 18.7718C22.0962 18.4633 22.0996 17.7198 21.5884 17.4073L19.9591 16.4108C19.7055 16.2556 19.3869 16.2544 19.1324 16.4074L11.3954 21.0509C11.1428 21.2027 10.8269 21.2027 10.5743 21.0509Z" fill="#006BA6"/>
<path d="M16.2765 12.5238L14.9271 13.3339L11.3954 15.4536C11.1428 15.6053 10.8269 15.6053 10.5743 15.4536L7.0426 13.3339L5.69316 12.5238L2.9495 10.8769C2.6947 10.7239 2.37612 10.7254 2.12285 10.8803L0.38246 11.9449C-0.128679 12.2576 -0.125613 13.0009 0.388286 13.3093L2.41782 14.5276L3.76726 15.3376L10.5743 19.4237C10.8269 19.5755 11.1428 19.5755 11.3954 19.4237L18.203 15.3376L19.5525 14.5276L21.582 13.3093C22.0956 13.0009 22.099 12.2573 21.5878 11.9449L19.8474 10.8803C19.5939 10.7251 19.2753 10.7239 19.0208 10.8769L16.2765 12.5238Z" fill="#006BA6"/>
<path d="M3.87698 9.80685L7.03518 11.7024L8.38463 12.5125L10.5736 13.8264C10.8263 13.9781 11.1421 13.9781 11.3947 13.8264L13.5837 12.5125L14.9332 11.7024L18.0914 9.80685L19.4408 8.99675L21.581 7.71201C22.0946 7.40355 22.098 6.65999 21.5869 6.34754L11.4003 0.117283C11.1448 -0.0390943 10.8232 -0.0390943 10.5678 0.117283L0.381484 6.34785C-0.129656 6.6606 -0.126589 7.40385 0.387309 7.71231L2.52753 8.99706L3.87698 9.80685Z" fill="#006BA6"/>
</svg>
