<svg width="45" height="45" viewBox="0 0 45 45" fill="none" xmlns="http://www.w3.org/2000/svg">
<circle cx="22.5" cy="22.5" r="22.5" fill="#76881D"/>
<path d="M22.574 31.0509L14.8383 26.4074C14.5835 26.2544 14.2649 26.256 14.0116 26.4108L12.3822 27.4073C11.8711 27.7201 11.8741 28.4633 12.388 28.7718L22.5746 34.8861C22.8273 35.0379 23.1431 35.0379 23.3958 34.8861L33.5824 28.7718C34.096 28.4633 34.0993 27.7198 33.5882 27.4073L31.9588 26.4108C31.7052 26.2556 31.3867 26.2544 31.1322 26.4074L23.3952 31.0509C23.1425 31.2027 22.8267 31.2027 22.574 31.0509Z" fill="white"/>
<path d="M28.2763 22.5238L26.9268 23.3339L23.3952 25.4536C23.1425 25.6053 22.8267 25.6053 22.574 25.4536L19.0424 23.3339L17.6929 22.5238L14.9493 20.8769C14.6945 20.7239 14.3759 20.7254 14.1226 20.8803L12.3822 21.9449C11.8711 22.2576 11.8741 23.0009 12.388 23.3093L14.4176 24.5276L15.767 25.3376L22.574 29.4237C22.8267 29.5755 23.1425 29.5755 23.3952 29.4237L30.2028 25.3376L31.5522 24.5276L33.5818 23.3093C34.0954 23.0009 34.0987 22.2573 33.5876 21.9449L31.8472 20.8803C31.5936 20.7251 31.275 20.7239 31.0205 20.8769L28.2763 22.5238Z" fill="white"/>
<path d="M15.877 19.8069L19.0352 21.7024L20.3846 22.5125L22.5736 23.8264C22.8263 23.9781 23.1421 23.9781 23.3947 23.8264L25.5837 22.5125L26.9332 21.7024L30.0914 19.8069L31.4408 18.9968L33.581 17.712C34.0946 17.4035 34.098 16.66 33.5869 16.3475L23.4003 10.1173C23.1448 9.96091 22.8232 9.96091 22.5678 10.1173L12.3815 16.3478C11.8703 16.6606 11.8734 17.4039 12.3873 17.7123L14.5275 18.9971L15.877 19.8069Z" fill="white"/>
</svg>
