<?xml version="1.0" encoding="UTF-8"?>
<svg width="45px" height="45px" viewBox="0 0 45 45" version="1.1" xmlns="http://www.w3.org/2000/svg" xmlns:xlink="http://www.w3.org/1999/xlink">
    <!-- Generator: Sketch 51.3 (57544) - http://www.bohemiancoding.com/sketch -->
    <title>Group</title>
    <desc>Created with Sketch.</desc>
    <defs></defs>
    <g id="Page-1" stroke="none" stroke-width="1" fill="none" fill-rule="evenodd">
        <g id="Group">
            <circle id="Oval" fill="#FFFFFF" cx="22.5" cy="22.5" r="22.5"></circle>
            <g id="measure-active" transform="translate(11.000000, 10.000000)" fill="#006BA6" fill-rule="nonzero">
                <path fill-rule="evenodd" clip-rule="evenodd" d="M13.5282 2.0509C13.0499 1.77476 12.4383 1.93864 12.1621 2.41693L1.58599 20.7354C1.30985 21.2137 1.47372 21.8252 1.95201 22.1014L9.04218 26.1949C9.52047 26.471 10.1321 26.3072 10.4082 25.8289L20.9844 7.51044C21.2605 7.03214 21.0966 6.42055 20.6183 6.14441L13.5282 2.0509ZM4.99229 20.3696C4.75156 20.2307 4.66908 19.9228 4.80806 19.6821C4.94705 19.4414 5.25487 19.3589 5.4956 19.4979L10.5053 22.3902C10.746 22.5292 10.8285 22.8371 10.6895 23.0778C10.5505 23.3185 10.2427 23.401 10.002 23.262L4.99229 20.3696ZM8.83463 12.7081C8.69564 12.9488 8.77813 13.2566 9.01886 13.3956L14.0286 16.288C14.2693 16.427 14.5771 16.3445 14.7161 16.1037C14.8551 15.863 14.7726 15.5552 14.5319 15.4162L9.52217 12.5239C9.28144 12.3849 8.97362 12.4673 8.83463 12.7081ZM13.0454 6.42153C12.8046 6.28255 12.7222 5.97473 12.8611 5.734C13.0001 5.49327 13.3079 5.41079 13.5487 5.54977L18.5584 8.44213C18.7991 8.58112 18.8816 8.88894 18.7426 9.12967C18.6036 9.3704 18.2958 9.45288 18.0551 9.31389L13.0454 6.42153ZM8.50189 17.1654C8.36291 17.4061 8.44539 17.7139 8.68612 17.8529L12.0154 19.7751C12.2561 19.914 12.564 19.8316 12.7029 19.5908C12.8419 19.3501 12.7595 19.0423 12.5187 18.9033L9.18943 16.9811C8.9487 16.8421 8.64088 16.9246 8.50189 17.1654ZM12.7126 10.8788C12.4719 10.7398 12.3894 10.432 12.5284 10.1913C12.6674 9.95054 12.9752 9.86806 13.2159 10.007L16.5452 11.9292C16.7859 12.0682 16.8684 12.376 16.7294 12.6168C16.5904 12.8575 16.2826 12.94 16.0419 12.801L12.7126 10.8788Z" fill="#006BA6"/>
            </g>
        </g>
    </g>
</svg>
