<svg width="82" height="24" viewBox="0 0 82 24" fill="none" xmlns="http://www.w3.org/2000/svg">
<path d="M0 20.5264L0.04448 20.1014L0.775928 19.9531L1.57163 13.6172L0.91431 13.5035L0.973617 13.0043H2.23388C2.47111 13.0043 2.70175 12.9912 2.92579 12.9648C3.14984 12.9351 3.39201 12.9203 3.6523 12.9203C4.38045 12.9203 4.93892 13.0785 5.32771 13.3948C5.71979 13.7111 5.92078 14.1971 5.93066 14.8527C5.94055 15.3371 5.86476 15.7654 5.70332 16.1377C5.54187 16.51 5.32112 16.823 5.04106 17.0767C4.7643 17.3271 4.43811 17.5182 4.0625 17.65C3.69019 17.7785 3.29481 17.8428 2.87637 17.8428C2.65562 17.8428 2.48264 17.8411 2.35744 17.8378C2.23223 17.8345 2.12515 17.8296 2.03619 17.823L1.78414 19.9531L2.77258 20.0964L2.73305 20.5264H0ZM2.11033 17.1756C2.26189 17.2019 2.40521 17.22 2.5403 17.2299C2.67539 17.2398 2.80388 17.2448 2.92579 17.2448C3.28163 17.2415 3.58146 17.1904 3.82528 17.0915C4.07239 16.9894 4.27172 16.8411 4.42328 16.6467C4.57814 16.4491 4.69016 16.2085 4.75936 15.9252C4.82855 15.6385 4.86644 15.3091 4.87303 14.9367C4.87632 14.7061 4.8582 14.5002 4.81866 14.319C4.77912 14.1377 4.70664 13.9862 4.6012 13.8643C4.49577 13.7424 4.35245 13.6518 4.17123 13.5925C3.99331 13.5299 3.76597 13.5019 3.48921 13.5084C3.4266 13.5084 3.35741 13.5117 3.28163 13.5183C3.20585 13.5249 3.12678 13.5332 3.04441 13.543C2.96204 13.5496 2.88131 13.5595 2.80224 13.5727C2.72316 13.5826 2.65068 13.5958 2.58478 13.6122L2.11033 17.1756Z" fill="#3E4827"/>
<path d="M6.68188 19.958C6.68188 19.9119 6.68353 19.8526 6.68682 19.7801C6.69341 19.7076 6.70165 19.6401 6.71153 19.5775L7.61596 13.202L7.00806 12.9895L7.11185 12.5793L8.43637 12.3717L8.67359 12.5052L7.68021 19.5923C7.66373 19.7109 7.66538 19.8032 7.68515 19.8691C7.70492 19.935 7.73787 19.9679 7.78399 19.9679C7.83342 19.9679 7.89766 19.9498 7.97674 19.9136C8.05581 19.874 8.16784 19.7851 8.31281 19.6467L8.46602 19.9086C8.44625 19.9449 8.40012 20.0025 8.32764 20.0816C8.25515 20.1607 8.16619 20.2414 8.06076 20.3238C7.95532 20.4028 7.83341 20.472 7.69503 20.5313C7.55995 20.5939 7.41827 20.6252 7.27 20.6252C7.06902 20.6252 6.92075 20.5742 6.8252 20.472C6.72965 20.3699 6.68188 20.1986 6.68188 19.958Z" fill="#3E4827"/>
<path d="M9.4001 18.4902C9.4001 18.2332 9.4314 17.9647 9.494 17.6846C9.5599 17.4013 9.65545 17.1228 9.78065 16.8494C9.90585 16.5726 10.0591 16.309 10.2403 16.0586C10.4248 15.8082 10.6357 15.5891 10.8729 15.4013C11.1101 15.2102 11.3737 15.0586 11.6636 14.9466C11.9569 14.8346 12.2732 14.7786 12.6125 14.7786C12.7773 14.7786 12.947 14.7967 13.1216 14.833C13.2995 14.8659 13.4577 14.9054 13.596 14.9516L14.194 14.7835L13.5466 19.5923C13.5301 19.7274 13.54 19.8246 13.5763 19.8839C13.6125 19.9399 13.6521 19.9679 13.6949 19.9679C13.741 19.9679 13.7954 19.9531 13.858 19.9234C13.9239 19.8938 14.0145 19.8328 14.1298 19.7406L14.283 20.0075C14.2665 20.0371 14.2253 20.0865 14.1595 20.1557C14.0969 20.2249 14.0161 20.2941 13.9173 20.3633C13.8184 20.4325 13.7048 20.4934 13.5763 20.5462C13.4478 20.5989 13.3127 20.6252 13.171 20.6252C12.97 20.6252 12.8102 20.5742 12.6916 20.472C12.573 20.3699 12.5203 20.1986 12.5335 19.958L12.5681 19.6318C12.4725 19.7538 12.3638 19.874 12.2419 19.9926C12.1233 20.1112 11.9948 20.2183 11.8564 20.3139C11.718 20.4061 11.5714 20.4803 11.4165 20.5363C11.2617 20.5956 11.1035 20.6252 10.9421 20.6252C10.6653 20.6252 10.4281 20.5725 10.2304 20.4671C10.036 20.3584 9.8762 20.2101 9.75099 20.0223C9.62909 19.8312 9.54013 19.6055 9.48411 19.3452C9.4281 19.0849 9.4001 18.7999 9.4001 18.4902ZM11.1447 19.9185C11.2897 19.9185 11.4346 19.8823 11.5796 19.8098C11.7246 19.7373 11.8646 19.6467 11.9997 19.5379C12.1348 19.4259 12.26 19.304 12.3753 19.1722C12.4906 19.0404 12.5895 18.9169 12.6718 18.8016L13.0969 15.5397C13.0079 15.4837 12.9091 15.4441 12.8003 15.4211C12.6949 15.398 12.5812 15.3865 12.4593 15.3865C12.2254 15.3865 12.0129 15.4326 11.8218 15.5249C11.6307 15.6171 11.461 15.7407 11.3127 15.8955C11.1645 16.0504 11.0343 16.2283 10.9223 16.4293C10.8136 16.6303 10.723 16.8428 10.6505 17.0668C10.5813 17.2876 10.5286 17.5116 10.4923 17.739C10.4594 17.963 10.4429 18.1755 10.4429 18.3765C10.4429 18.8543 10.4973 19.2315 10.606 19.5083C10.718 19.7818 10.8976 19.9185 11.1447 19.9185Z" fill="#3E4827"/>
<path d="M15.4642 20.5264L16.1067 15.767L15.6223 15.4754L15.7113 15.0356L16.932 14.7786L17.1693 14.8972L17.0704 15.945C17.2022 15.7802 17.3455 15.627 17.5004 15.4853C17.6585 15.3436 17.8233 15.2217 17.9946 15.1196C18.1692 15.0142 18.3472 14.9318 18.5284 14.8725C18.7129 14.8099 18.8974 14.7786 19.0819 14.7786C19.2532 14.7786 19.4081 14.8049 19.5465 14.8577C19.6849 14.9071 19.8018 14.9911 19.8974 15.1097C19.9962 15.225 20.072 15.3782 20.1247 15.5693C20.1774 15.7571 20.2038 15.9911 20.2038 16.2711C20.2038 16.393 20.1955 16.5281 20.1791 16.6764C20.1626 16.8214 20.1412 16.9713 20.1148 17.1261C20.0885 17.281 20.0605 17.4359 20.0308 17.5907C20.0044 17.7456 19.9781 17.8922 19.9517 18.0306C19.9056 18.2843 19.8611 18.5462 19.8183 18.8164C19.7755 19.0866 19.7475 19.3485 19.7343 19.6022C19.7277 19.7208 19.731 19.8131 19.7442 19.879C19.7606 19.9416 19.7919 19.9729 19.8381 19.9729C19.8809 19.9729 19.9336 19.958 19.9962 19.9284C20.0621 19.8987 20.1527 19.8378 20.268 19.7455L20.4212 20.0075C20.4015 20.0371 20.3586 20.0865 20.2927 20.1557C20.2268 20.2249 20.1428 20.2958 20.0407 20.3682C19.9385 20.4374 19.8232 20.4984 19.6947 20.5511C19.5695 20.6038 19.4361 20.6302 19.2944 20.6302C19.0868 20.6302 18.927 20.5808 18.815 20.4819C18.703 20.3798 18.6552 20.2084 18.6717 19.9679C18.6783 19.8526 18.6898 19.729 18.7063 19.5973C18.7228 19.4655 18.7425 19.3304 18.7656 19.192C18.7887 19.0503 18.8134 18.907 18.8397 18.762C18.8661 18.617 18.8908 18.4754 18.9139 18.337C18.9402 18.192 18.9682 18.0355 18.9979 17.8675C19.0308 17.6961 19.0605 17.5232 19.0868 17.3485C19.1165 17.1739 19.1412 16.9993 19.161 16.8247C19.1807 16.65 19.1906 16.4853 19.1906 16.3304C19.1906 16.1525 19.1775 16.0141 19.1511 15.9153C19.1247 15.8132 19.0868 15.7374 19.0374 15.688C18.9913 15.6352 18.9336 15.6023 18.8644 15.5891C18.7953 15.5759 18.7178 15.5693 18.6322 15.5693C18.5103 15.5693 18.3768 15.6006 18.2318 15.6632C18.0869 15.7226 17.9402 15.8066 17.792 15.9153C17.647 16.024 17.502 16.1525 17.3571 16.3008C17.2154 16.4458 17.0836 16.6039 16.9617 16.7752L16.4526 20.5264H15.4642Z" fill="#3E4827"/>
<path d="M21.7655 19.7406C21.7655 19.7274 21.7655 19.7093 21.7655 19.6862C21.7655 19.6599 21.7672 19.622 21.7705 19.5725C21.7738 19.5231 21.7803 19.4589 21.7902 19.3798C21.8001 19.2974 21.8133 19.192 21.8298 19.0635L22.2746 15.51H21.6815L21.7803 15.0751L22.3882 14.8428C22.4443 14.7802 22.5019 14.6979 22.5612 14.5957C22.6205 14.4936 22.6798 14.3816 22.7391 14.2597C22.7984 14.1377 22.8545 14.0142 22.9072 13.889C22.9632 13.7605 23.0126 13.6402 23.0554 13.5282H23.5398L23.3717 14.8181H24.6567L24.5579 15.51H23.2877L22.8775 18.5989C22.8512 18.7867 22.8297 18.9548 22.8133 19.103C22.8001 19.2513 22.7935 19.3732 22.7935 19.4688C22.7935 19.561 22.7984 19.6368 22.8083 19.6961C22.8215 19.7554 22.8429 19.8032 22.8726 19.8394C22.9055 19.8724 22.9484 19.8954 23.0011 19.9086C23.0571 19.9218 23.1263 19.9284 23.2086 19.9284C23.2745 19.9284 23.3503 19.9152 23.436 19.8888C23.5217 19.8592 23.609 19.8246 23.6979 19.7851C23.7869 19.7422 23.8709 19.6977 23.95 19.6516C24.0324 19.6022 24.0999 19.5577 24.1526 19.5182L24.2416 19.9037C24.1823 19.9762 24.0933 20.0552 23.9747 20.1409C23.8594 20.2233 23.7292 20.3007 23.5843 20.3732C23.4393 20.4457 23.2861 20.505 23.1246 20.5511C22.9665 20.6005 22.8149 20.6252 22.6699 20.6252C22.548 20.6252 22.4311 20.6104 22.3191 20.5808C22.2103 20.5544 22.1148 20.5066 22.0324 20.4374C21.95 20.3682 21.8841 20.2776 21.8347 20.1656C21.7886 20.0503 21.7655 19.9086 21.7655 19.7406Z" fill="#3E4827"/>
<path d="M25.4672 19.9679C25.4837 19.7702 25.5117 19.5248 25.5513 19.2315C25.5908 18.9383 25.6386 18.6088 25.6946 18.2431C25.7506 17.8741 25.8116 17.4754 25.8774 17.0471C25.9466 16.6154 26.0142 16.1624 26.0801 15.688L25.3585 15.431L25.4475 15.0306L26.9598 14.7786L27.202 14.8972L26.515 19.5923C26.4788 19.8427 26.5166 19.9679 26.6287 19.9679C26.6814 19.9679 26.7473 19.9465 26.8264 19.9037C26.9054 19.8608 27.0142 19.7735 27.1525 19.6417L27.3107 19.9086C27.2876 19.9449 27.2399 20.0025 27.1674 20.0816C27.0949 20.1607 27.0043 20.2414 26.8955 20.3238C26.7868 20.4028 26.6633 20.472 26.5249 20.5313C26.3865 20.5939 26.2415 20.6252 26.09 20.6252C25.8857 20.6252 25.7259 20.5758 25.6106 20.477C25.4985 20.3781 25.4508 20.2084 25.4672 19.9679ZM26.8066 13.6765C26.7275 13.6765 26.6517 13.6616 26.5792 13.632C26.5101 13.599 26.4491 13.5579 26.3964 13.5084C26.347 13.4557 26.3058 13.3948 26.2728 13.3256C26.2432 13.2531 26.2283 13.1773 26.2283 13.0982C26.2283 12.9994 26.2498 12.9055 26.2926 12.8165C26.3387 12.7276 26.3964 12.6485 26.4656 12.5793C26.5348 12.5101 26.6122 12.4557 26.6979 12.4162C26.7835 12.3767 26.8675 12.3569 26.9499 12.3569C27.1377 12.3569 27.286 12.4113 27.3947 12.52C27.5067 12.6287 27.5627 12.7589 27.5627 12.9104C27.5627 13.0093 27.5413 13.1048 27.4985 13.1971C27.459 13.2893 27.4046 13.3717 27.3354 13.4442C27.2662 13.5134 27.1855 13.5694 27.0932 13.6122C27.0043 13.6551 26.9087 13.6765 26.8066 13.6765Z" fill="#3E4827"/>
<path d="M28.5018 20.5264L29.1443 15.767L28.6599 15.4754L28.7489 15.0356L29.9696 14.7786L30.2068 14.8972L30.108 15.945C30.2398 15.7802 30.3831 15.627 30.538 15.4853C30.6961 15.3436 30.8609 15.2217 31.0322 15.1196C31.2068 15.0142 31.3847 14.9318 31.5659 14.8725C31.7505 14.8099 31.935 14.7786 32.1195 14.7786C32.2908 14.7786 32.4457 14.8049 32.584 14.8577C32.7224 14.9071 32.8394 14.9911 32.9349 15.1097C33.0338 15.225 33.1096 15.3782 33.1623 15.5693C33.215 15.7571 33.2414 15.9911 33.2414 16.2711C33.2414 16.393 33.2331 16.5281 33.2166 16.6764C33.2002 16.8214 33.1787 16.9713 33.1524 17.1261C33.126 17.281 33.098 17.4359 33.0684 17.5907C33.042 17.7456 33.0157 17.8922 32.9893 18.0306C32.9432 18.2843 32.8987 18.5462 32.8559 18.8164C32.813 19.0866 32.785 19.3485 32.7718 19.6022C32.7653 19.7208 32.7685 19.8131 32.7817 19.879C32.7982 19.9416 32.8295 19.9729 32.8756 19.9729C32.9185 19.9729 32.9712 19.958 33.0338 19.9284C33.0997 19.8987 33.1903 19.8378 33.3056 19.7455L33.4588 20.0075C33.439 20.0371 33.3962 20.0865 33.3303 20.1557C33.2644 20.2249 33.1804 20.2958 33.0783 20.3682C32.9761 20.4374 32.8608 20.4984 32.7323 20.5511C32.6071 20.6038 32.4737 20.6302 32.332 20.6302C32.1244 20.6302 31.9646 20.5808 31.8526 20.4819C31.7406 20.3798 31.6928 20.2084 31.7093 19.9679C31.7159 19.8526 31.7274 19.729 31.7439 19.5973C31.7603 19.4655 31.7801 19.3304 31.8032 19.192C31.8262 19.0503 31.8509 18.907 31.8773 18.762C31.9037 18.617 31.9284 18.4754 31.9514 18.337C31.9778 18.192 32.0058 18.0355 32.0354 17.8675C32.0684 17.6961 32.0981 17.5232 32.1244 17.3485C32.1541 17.1739 32.1788 16.9993 32.1985 16.8247C32.2183 16.65 32.2282 16.4853 32.2282 16.3304C32.2282 16.1525 32.215 16.0141 32.1887 15.9153C32.1623 15.8132 32.1244 15.7374 32.075 15.688C32.0289 15.6352 31.9712 15.6023 31.902 15.5891C31.8328 15.5759 31.7554 15.5693 31.6697 15.5693C31.5478 15.5693 31.4144 15.6006 31.2694 15.6632C31.1244 15.7226 30.9778 15.8066 30.8295 15.9153C30.6846 16.024 30.5396 16.1525 30.3946 16.3008C30.253 16.4458 30.1212 16.6039 29.9993 16.7752L29.4902 20.5264H28.5018Z" fill="#3E4827"/>
<path d="M34.4769 18.4902C34.4769 18.2332 34.5082 17.9647 34.5708 17.6846C34.6367 17.4013 34.7323 17.1228 34.8575 16.8494C34.9827 16.5726 35.1359 16.309 35.3171 16.0586C35.5016 15.8082 35.7125 15.5891 35.9497 15.4013C36.1869 15.2102 36.4505 15.0586 36.7404 14.9466C37.0337 14.8346 37.35 14.7786 37.6893 14.7786C37.8903 14.7786 38.0847 14.8 38.2725 14.8428C38.4636 14.8857 38.6284 14.9334 38.7668 14.9862L39.3697 14.7786L38.4208 20.9069C38.3615 21.299 38.2346 21.6301 38.0402 21.9003C37.8458 22.1705 37.6202 22.3896 37.3632 22.5576C37.1062 22.7257 36.8343 22.8476 36.5477 22.9234C36.261 22.9991 35.9942 23.037 35.7471 23.037C35.6383 23.037 35.5296 23.0321 35.4209 23.0222C35.3121 23.0123 35.2084 22.9991 35.1095 22.9827C35.014 22.9662 34.9266 22.9464 34.8476 22.9234C34.7685 22.9036 34.7042 22.8838 34.6548 22.8641L34.9019 21.9497C34.9711 21.9827 35.0535 22.0173 35.149 22.0535C35.2479 22.0898 35.355 22.1227 35.4703 22.1524C35.5889 22.1853 35.7125 22.2117 35.841 22.2315C35.9695 22.2512 36.098 22.2611 36.2265 22.2611C36.434 22.2611 36.6054 22.2463 36.7404 22.2166C36.8755 22.1903 36.9843 22.1392 37.0666 22.0634C37.1523 21.9876 37.2182 21.8839 37.2643 21.7521C37.3104 21.6203 37.35 21.4522 37.3829 21.248L37.6053 19.8839C37.523 19.9794 37.4291 20.0717 37.3236 20.1607C37.2182 20.2496 37.1012 20.3287 36.9727 20.3979C36.8475 20.4671 36.7124 20.5214 36.5675 20.561C36.4258 20.6038 36.2742 20.6252 36.1128 20.6252C35.836 20.6252 35.5938 20.5725 35.3863 20.4671C35.182 20.3584 35.0123 20.2101 34.8772 20.0223C34.7421 19.8312 34.6416 19.6055 34.5757 19.3452C34.5099 19.0849 34.4769 18.7999 34.4769 18.4902ZM36.2956 19.9185C36.4439 19.9185 36.5872 19.8921 36.7256 19.8394C36.8673 19.7834 37.0007 19.7142 37.1259 19.6318C37.2511 19.5462 37.3648 19.4523 37.4669 19.3501C37.5724 19.2447 37.6597 19.1426 37.7289 19.0437L38.233 15.5792C38.1374 15.5067 38.0304 15.4573 37.9117 15.431C37.7964 15.4013 37.6712 15.3865 37.5361 15.3865C37.3022 15.3865 37.0897 15.4343 36.8986 15.5298C36.7075 15.6221 36.5378 15.7473 36.3895 15.9054C36.2413 16.0636 36.1111 16.2464 35.9991 16.454C35.8904 16.6616 35.7998 16.8774 35.7273 17.1014C35.6581 17.3255 35.6054 17.5528 35.5691 17.7835C35.5362 18.0108 35.5197 18.225 35.5197 18.4259C35.5197 18.907 35.5889 19.276 35.7273 19.533C35.869 19.79 36.0584 19.9185 36.2956 19.9185Z" fill="#3E4827"/>
<path d="M43.1406 20.5264L43.1851 20.0618L44.391 19.9481L45.2065 13.5381L43.6447 13.6369L43.1703 15.3222L42.597 15.3321L42.9775 13.0043H48.6512L48.3201 15.3321H47.7715L47.8061 13.6419L46.2196 13.5381L45.3992 19.9481L46.6348 20.0618L46.6002 20.5264H43.1406Z" fill="#3E4827"/>
<path d="M48.7056 18.3568C48.7023 18.0569 48.7303 17.7604 48.7896 17.4672C48.8489 17.1739 48.9362 16.8955 49.0515 16.6319C49.1668 16.365 49.3085 16.1196 49.4765 15.8955C49.6446 15.6682 49.834 15.4721 50.0449 15.3074C50.2558 15.1427 50.4848 15.0142 50.7319 14.9219C50.9823 14.8264 51.2459 14.7786 51.5226 14.7786C51.8389 14.7786 52.1173 14.8297 52.3579 14.9318C52.6017 15.0339 52.806 15.1822 52.9707 15.3766C53.1387 15.571 53.2672 15.8099 53.3562 16.0932C53.4451 16.3733 53.4929 16.6929 53.4995 17.052C53.5061 17.3518 53.4781 17.6484 53.4155 17.9416C53.3562 18.2348 53.2689 18.5149 53.1536 18.7818C53.0382 19.0454 52.8966 19.2892 52.7285 19.5132C52.5605 19.7373 52.371 19.9317 52.1602 20.0964C51.9493 20.2612 51.7187 20.3913 51.4683 20.4868C51.2211 20.5791 50.9576 20.6252 50.6775 20.6252C50.3612 20.6252 50.0811 20.5742 49.8373 20.472C49.5968 20.3699 49.3942 20.2233 49.2294 20.0322C49.0647 19.8378 48.9378 19.6005 48.8489 19.3205C48.7599 19.0371 48.7121 18.7159 48.7056 18.3568ZM50.8505 20.0272C51.0383 20.0272 51.208 19.9844 51.3595 19.8987C51.5111 19.8098 51.6462 19.6912 51.7648 19.5429C51.8834 19.3913 51.9855 19.2167 52.0712 19.019C52.1602 18.8213 52.231 18.6137 52.2837 18.3963C52.3397 18.1755 52.3793 17.9498 52.4023 17.7192C52.4287 17.4886 52.4402 17.2678 52.4369 17.057C52.4303 16.5331 52.3348 16.1245 52.1503 15.8313C51.9691 15.5347 51.7005 15.3865 51.3447 15.3865C51.1602 15.3865 50.9905 15.431 50.8357 15.5199C50.6841 15.6056 50.549 15.7226 50.4304 15.8708C50.3118 16.0191 50.2096 16.1921 50.124 16.3898C50.0383 16.5874 49.9675 16.7967 49.9115 17.0174C49.8554 17.2349 49.8143 17.4589 49.7879 17.6896C49.7648 17.9202 49.7566 18.1409 49.7632 18.3518C49.7698 18.879 49.8637 19.2908 50.0449 19.5874C50.2261 19.8806 50.4946 20.0272 50.8505 20.0272Z" fill="#3E4827"/>
<path d="M54.3693 18.3568C54.366 18.0569 54.394 17.7604 54.4534 17.4672C54.5127 17.1739 54.6 16.8955 54.7153 16.6319C54.8306 16.365 54.9723 16.1196 55.1403 15.8955C55.3084 15.6682 55.4978 15.4721 55.7087 15.3074C55.9195 15.1427 56.1485 15.0142 56.3956 14.9219C56.646 14.8264 56.9096 14.7786 57.1864 14.7786C57.5027 14.7786 57.7811 14.8297 58.0216 14.9318C58.2654 15.0339 58.4697 15.1822 58.6345 15.3766C58.8025 15.571 58.931 15.8099 59.02 16.0932C59.1089 16.3733 59.1567 16.6929 59.1633 17.052C59.1699 17.3518 59.1419 17.6484 59.0793 17.9416C59.02 18.2348 58.9327 18.5149 58.8173 18.7818C58.702 19.0454 58.5603 19.2892 58.3923 19.5132C58.2243 19.7373 58.0348 19.9317 57.8239 20.0964C57.6131 20.2612 57.3824 20.3913 57.132 20.4868C56.8849 20.5791 56.6213 20.6252 56.3413 20.6252C56.025 20.6252 55.7449 20.5742 55.5011 20.472C55.2606 20.3699 55.058 20.2233 54.8932 20.0322C54.7285 19.8378 54.6016 19.6005 54.5127 19.3205C54.4237 19.0371 54.3759 18.7159 54.3693 18.3568ZM56.5143 20.0272C56.7021 20.0272 56.8717 19.9844 57.0233 19.8987C57.1749 19.8098 57.31 19.6912 57.4286 19.5429C57.5472 19.3913 57.6493 19.2167 57.735 19.019C57.8239 18.8213 57.8948 18.6137 57.9475 18.3963C58.0035 18.1755 58.0431 17.9498 58.0661 17.7192C58.0925 17.4886 58.104 17.2678 58.1007 17.057C58.0941 16.5331 57.9986 16.1245 57.8141 15.8313C57.6328 15.5347 57.3643 15.3865 57.0085 15.3865C56.824 15.3865 56.6543 15.431 56.4994 15.5199C56.3479 15.6056 56.2128 15.7226 56.0942 15.8708C55.9756 16.0191 55.8734 16.1921 55.7878 16.3898C55.7021 16.5874 55.6312 16.7967 55.5752 17.0174C55.5192 17.2349 55.478 17.4589 55.4517 17.6896C55.4286 17.9202 55.4204 18.1409 55.427 18.3518C55.4336 18.879 55.5275 19.2908 55.7087 19.5874C55.8899 19.8806 56.1584 20.0272 56.5143 20.0272Z" fill="#3E4827"/>
<path d="M60.3049 19.958C60.3049 19.9119 60.3066 19.8526 60.3099 19.7801C60.3165 19.7076 60.3247 19.6401 60.3346 19.5775L61.239 13.202L60.6311 12.9895L60.7349 12.5793L62.0594 12.3717L62.2966 12.5052L61.3033 19.5923C61.2868 19.7109 61.2884 19.8032 61.3082 19.8691C61.328 19.935 61.3609 19.9679 61.407 19.9679C61.4565 19.9679 61.5207 19.9498 61.5998 19.9136C61.6789 19.874 61.7909 19.7851 61.9359 19.6467L62.0891 19.9086C62.0693 19.9449 62.0232 20.0025 61.9507 20.0816C61.8782 20.1607 61.7892 20.2414 61.6838 20.3238C61.5784 20.4028 61.4565 20.472 61.3181 20.5313C61.183 20.5939 61.0413 20.6252 60.8931 20.6252C60.6921 20.6252 60.5438 20.5742 60.4483 20.472C60.3527 20.3699 60.3049 20.1986 60.3049 19.958Z" fill="#3E4827"/>
<path d="M1.91808 5.01011H3.48792C4.3452 5.01011 4.91302 4.79857 5.35836 4.33096C5.78144 3.88562 5.99297 3.29554 5.99297 2.61639C5.99297 1.81477 5.7035 1.13563 5.19136 0.679148C4.71261 0.256072 4.1782 0.111336 3.16504 0.111336H0.248047V7.53743H1.91808V5.01011ZM1.91808 3.58501V1.53643H3.23185C3.88873 1.53643 4.28954 1.91498 4.28954 2.56072C4.28954 3.19534 3.88873 3.58501 3.23185 3.58501H1.91808Z" fill="#3E4827"/>
<path d="M8.66921 4.56477H9.78257C10.6399 4.56477 11.0407 4.96558 11.1075 5.87853L11.1743 6.89169C11.1965 7.27023 11.2522 7.38156 11.4526 7.53743H13.0892C12.8777 7.22569 12.822 7.05869 12.7886 6.56881L12.733 5.51112C12.6773 4.53137 12.4212 4.14169 11.6864 3.90789C12.5214 3.59615 12.9222 3.0172 12.9222 2.11538C12.9222 1.44737 12.6662 0.890687 12.2097 0.556679C11.7643 0.233805 11.2299 0.111336 10.2724 0.111336H7.03257V7.53743H8.66921V4.56477ZM8.66921 3.25101V1.53643H10.3058C10.9182 1.53643 11.2522 1.84817 11.2522 2.39372C11.2522 2.93927 10.9182 3.25101 10.3058 3.25101H8.66921Z" fill="#3E4827"/>
<path d="M18.498 6.04553L18.8988 7.53743H20.7915L18.4312 0.111336H16.3492L13.7551 7.53743H15.5699L16.0375 6.04553H18.498ZM18.1306 4.6761H16.4494L17.3512 1.77024L18.1306 4.6761Z" fill="#3E4827"/>
<path d="M23.2502 0.111336H21.5802V7.53743H23.2502V0.111336Z" fill="#3E4827"/>
<path d="M26.4568 4.56477H27.5702C28.4275 4.56477 28.8283 4.96558 28.8951 5.87853L28.9619 6.89169C28.9842 7.27023 29.0398 7.38156 29.2402 7.53743H30.8769C30.6653 7.22569 30.6097 7.05869 30.5763 6.56881L30.5206 5.51112C30.4649 4.53137 30.2089 4.14169 29.474 3.90789C30.3091 3.59615 30.7099 3.0172 30.7099 2.11538C30.7099 1.44737 30.4538 0.890687 29.9973 0.556679C29.552 0.233805 29.0176 0.111336 28.0601 0.111336H24.8202V7.53743H26.4568V4.56477ZM26.4568 3.25101V1.53643H28.0935C28.7058 1.53643 29.0398 1.84817 29.0398 2.39372C29.0398 2.93927 28.7058 3.25101 28.0935 3.25101H26.4568Z" fill="#3E4827"/>
<path d="M33.8293 0.111336H32.1592V7.53743H33.8293V0.111336Z" fill="#3E4827"/>
<path d="M40.9327 0.111336H35.3993V7.53743H40.9995V6.11234H37.0693V4.29756H40.4428V2.9838H37.0693V1.53643H40.9327V0.111336Z" fill="#3E4827"/>
<path d="M50.0298 3.60728C49.9964 4.10829 49.8628 4.5425 49.6623 4.78744L48.7605 3.59615C49.7403 2.86133 50.0075 2.47166 50.0075 1.79251C50.0075 0.768217 49.1613 0 48.0257 0C46.9346 0 46.133 0.734817 46.133 1.72571C46.133 2.23785 46.3779 2.7834 46.8567 3.35121C45.6654 4.09716 45.2201 4.72064 45.2201 5.62246C45.2201 6.82489 46.1553 7.68217 47.4468 7.68217C48.1927 7.68217 48.8496 7.44837 49.5844 6.92509L50.0632 7.53743H51.8223L50.5308 5.91193C51.0095 5.17712 51.2544 4.48683 51.3546 3.60728H50.0298ZM47.9923 2.64979C47.6249 2.19332 47.4913 1.95951 47.4913 1.73684C47.4913 1.43623 47.7362 1.22469 48.0925 1.22469C48.4599 1.22469 48.7049 1.4585 48.7049 1.80364C48.7049 2.11538 48.4933 2.36032 47.9923 2.64979ZM48.7717 5.85626C48.3597 6.23481 47.9589 6.42408 47.5692 6.42408C47.0237 6.42408 46.634 6.07894 46.634 5.58906C46.634 5.13258 46.9012 4.83197 47.6694 4.4089L48.7717 5.85626Z" fill="#3E4827"/>
<path d="M59.0789 1.53643H61.3279V0.111336H55.1599V1.53643H57.4089V7.53743H59.0789V1.53643Z" fill="#3E4827"/>
<path d="M63.8696 4.56477H64.9829C65.8402 4.56477 66.241 4.96558 66.3078 5.87853L66.3746 6.89169C66.3969 7.27023 66.4526 7.38156 66.653 7.53743H68.2896C68.0781 7.22569 68.0224 7.05869 67.989 6.56881L67.9333 5.51112C67.8777 4.53137 67.6216 4.14169 66.8868 3.90789C67.7218 3.59615 68.1226 3.0172 68.1226 2.11538C68.1226 1.44737 67.8665 0.890687 67.4101 0.556679C66.9647 0.233805 66.4303 0.111336 65.4728 0.111336H62.2329V7.53743H63.8696V4.56477ZM63.8696 3.25101V1.53643H65.5062C66.1186 1.53643 66.4526 1.84817 66.4526 2.39372C66.4526 2.93927 66.1186 3.25101 65.5062 3.25101H63.8696Z" fill="#3E4827"/>
<path d="M75.1054 0.111336H69.572V7.53743H75.1722V6.11234H71.242V4.29756H74.6155V2.9838H71.242V1.53643H75.1054V0.111336Z" fill="#3E4827"/>
<path d="M81.9334 0.111336H76.4V7.53743H82.0002V6.11234H78.07V4.29756H81.4435V2.9838H78.07V1.53643H81.9334V0.111336Z" fill="#3E4827"/>
</svg>
