<svg width="45" height="45" viewBox="0 0 45 45" fill="none" xmlns="http://www.w3.org/2000/svg">
<circle cx="22.5" cy="22.5" r="22.5" fill="#76881D"/>
<path fill-rule="evenodd" clip-rule="evenodd" d="M31.0016 30.9708C28.8029 28.8871 26.8381 26.5178 25.2423 23.698H28.2429C28.3632 23.698 28.4661 23.631 28.5115 23.5227C28.5573 23.4143 28.5321 23.2971 28.4458 23.2152C26.7042 21.5642 25.1674 19.6626 23.9689 17.3493H26.3113C26.3942 17.3493 26.4651 17.3035 26.4964 17.2291C26.5274 17.1547 26.5102 17.0737 26.451 17.0175C24.6074 15.2694 23.0976 13.1136 22.2549 10.1423C22.2307 10.0571 22.1533 10 22.0621 10C21.9712 10 21.8942 10.0571 21.8699 10.1423C21.0275 13.1133 19.518 15.2691 17.6739 17.0175C17.6146 17.0737 17.5971 17.1547 17.6288 17.2291C17.6604 17.3035 17.7307 17.3493 17.8139 17.3493H20.1566C18.9578 19.6626 17.4209 21.5642 15.6796 23.2152C15.5934 23.2971 15.5682 23.4146 15.6136 23.5227C15.6591 23.631 15.7619 23.698 15.8826 23.698H18.8829C17.2868 26.5178 15.322 28.8871 13.1236 30.9708C13.0026 31.0848 12.9676 31.25 13.0312 31.4015C13.0947 31.553 13.2387 31.6468 13.4079 31.6468H21.1685V35H22.9564V31.6468H30.717C30.8858 31.6468 31.0295 31.553 31.0937 31.4015C31.1575 31.2497 31.1222 31.0848 31.0016 30.9708Z" fill="white"/>
</svg>
