<svg width="45" height="45" viewBox="0 0 45 45" fill="none" xmlns="http://www.w3.org/2000/svg">
<circle cx="22.5" cy="22.5" r="22.5" fill="#76881D"/>
<path d="M22.5315 25.6703C23.597 24.6308 23.8569 23.0456 23.9348 22.24C23.9608 21.9801 23.7269 21.7462 23.4671 21.7462C22.6615 21.7982 21.0762 22.0061 20.0108 23.0456C19.6469 23.4094 19.3871 23.8252 19.1792 24.241V21.4603C20.0108 21.4084 21.492 21.1745 22.5315 20.161C23.597 19.1215 23.8569 17.5363 23.9348 16.7307C23.9608 16.4708 23.7269 16.2369 23.4671 16.2369C22.6615 16.2889 21.0762 16.4968 20.0108 17.5363C19.6469 17.9001 19.3871 18.3159 19.1792 18.7317V16.7047C19.7249 16.029 20.4525 14.8856 20.4525 13.5343C20.4525 12.027 19.491 10.7536 18.9713 10.1559C18.7894 9.94803 18.4775 9.94803 18.2956 10.1559C17.7759 10.7536 16.8143 12.053 16.8143 13.5343C16.8143 14.8596 17.568 16.029 18.0877 16.6787V18.7057C17.8798 18.2899 17.6199 17.8741 17.2561 17.5103C16.1906 16.4708 14.5794 16.2369 13.7998 16.2109C13.54 16.1849 13.3061 16.4188 13.3321 16.7047C13.384 17.4843 13.6699 19.0695 14.7354 20.135C15.7749 21.1485 17.2821 21.3824 18.0877 21.4344V24.241C17.8798 23.8252 17.6199 23.4094 17.2561 23.0456C16.1906 22.0061 14.5794 21.7722 13.7998 21.7462C13.54 21.7202 13.3061 21.9541 13.3321 22.24C13.384 23.0196 13.6699 24.6048 14.7354 25.6703C15.7749 26.6838 17.2821 26.9177 18.0877 26.9696V29.7762C17.8798 29.3604 17.6199 28.9447 17.2561 28.5808C16.1906 27.5413 14.5794 27.3075 13.7998 27.2815C13.54 27.2555 13.3061 27.4894 13.3321 27.7752C13.384 28.5548 13.6699 30.1401 14.7354 31.2055C15.7749 32.219 17.2821 32.4529 18.0877 32.5049V34.246C18.0877 34.5319 18.3216 34.7658 18.6075 34.7658C18.8933 34.7658 19.1272 34.5319 19.1272 34.246V32.5049C19.9588 32.4529 21.4401 32.219 22.4795 31.2055C23.545 30.166 23.8049 28.5808 23.8828 27.7752C23.9088 27.5154 23.675 27.2815 23.4151 27.2815C22.6095 27.3334 21.0243 27.5413 19.9588 28.5808C19.595 28.9447 19.3351 29.3604 19.1272 29.7762V26.9696C19.9848 26.9177 21.492 26.6838 22.5315 25.6703Z" fill="white"/>
<path d="M30.9451 28.4011C31.7182 27.6469 31.9067 26.4967 31.9633 25.9122C31.9821 25.7237 31.8125 25.554 31.6239 25.554C31.0394 25.5917 29.8892 25.7425 29.1162 26.4967C28.8522 26.7607 28.6637 27.0624 28.5128 27.3641V25.3466C29.1162 25.3089 30.1909 25.1392 30.9451 24.4038C31.7182 23.6496 31.9067 22.4995 31.9633 21.915C31.9821 21.7264 31.8125 21.5567 31.6239 21.5567C31.0394 21.5944 29.8892 21.7453 29.1162 22.4995C28.8522 22.7635 28.6637 23.0651 28.5128 23.3668V21.8961C28.9088 21.4059 29.4367 20.5763 29.4367 19.5958C29.4367 18.5022 28.7391 17.5783 28.362 17.1447C28.23 16.9938 28.0038 16.9938 27.8718 17.1447C27.4947 17.5783 26.797 18.5211 26.797 19.5958C26.797 20.5574 27.3438 21.4059 27.7209 21.8773V23.348C27.5701 23.0463 27.3815 22.7446 27.1176 22.4806C26.3445 21.7264 25.1755 21.5567 24.6099 21.5379C24.4213 21.519 24.2516 21.6887 24.2705 21.8961C24.3082 22.4618 24.5156 23.6119 25.2886 24.385C26.0428 25.1203 27.1364 25.29 27.7209 25.3277V27.3641C27.5701 27.0624 27.3815 26.7607 27.1176 26.4967C26.3445 25.7425 25.1755 25.5728 24.6099 25.554C24.4213 25.5351 24.2516 25.7048 24.2705 25.9122C24.3082 26.4779 24.5156 27.628 25.2886 28.4011C26.0428 29.1364 27.1364 29.3061 27.7209 29.3438V31.3802C27.5701 31.0785 27.3815 30.7768 27.1176 30.5128C26.3445 29.7586 25.1755 29.5889 24.6099 29.5701C24.4213 29.5512 24.2516 29.7209 24.2705 29.9283C24.3082 30.494 24.5156 31.6441 25.2886 32.4172C26.0428 33.1525 27.1364 33.3222 27.7209 33.3599V34.6232C27.7209 34.8306 27.8906 35.0003 28.098 35.0003C28.3054 35.0003 28.4751 34.8306 28.4751 34.6232V33.3599C29.0785 33.3222 30.1532 33.1525 30.9074 32.4172C31.6805 31.663 31.869 30.5128 31.9256 29.9283C31.9444 29.7398 31.7747 29.5701 31.5862 29.5701C31.0017 29.6078 29.8515 29.7586 29.0785 30.5128C28.8145 30.7768 28.626 31.0785 28.4751 31.3802V29.3438C29.0973 29.3061 30.1909 29.1364 30.9451 28.4011Z" fill="white"/>
</svg>
