<?xml version="1.0" encoding="UTF-8"?>
<svg width="45px" height="45px" viewBox="0 0 45 45" version="1.1" xmlns="http://www.w3.org/2000/svg" xmlns:xlink="http://www.w3.org/1999/xlink">
    <!-- Generator: Sketch 51.3 (57544) - http://www.bohemiancoding.com/sketch -->
    <title>Group</title>
    <desc>Created with Sketch.</desc>
    <defs></defs>
    <g id="Page-1" stroke="none" stroke-width="1" fill="none" fill-rule="evenodd">
        <g id="Group">
            <circle id="Oval" fill="#FFFFFF" cx="22.5" cy="22.5" r="22.5"></circle>
            <g id="prairie-tool_active" transform="translate(13.000000, 10.000000)" fill="#006BA6" fill-rule="nonzero">
                <path d="M9.20144,15.6703 C10.2669,14.6308 10.5268,13.0456 10.6047,12.24 C10.6307,11.9801 10.3968,11.7462 10.137,11.7462 C9.33137,11.7982 7.74616,12.0061 6.68068,13.0456 C6.31686,13.4094 6.05699,13.8252 5.84909,14.241 L5.84909,11.4603 C6.68068,11.4084 8.16195,11.1745 9.20144,10.161 C10.2669,9.1215 10.5268,7.53628 10.6047,6.73068 C10.6307,6.47081 10.3968,6.23692 10.137,6.23692 C9.33137,6.2889 7.74616,6.49679 6.68068,7.53628 C6.31686,7.9001 6.05699,8.3159 5.84909,8.73169 L5.84909,6.70469 C6.39482,6.02903 7.12247,4.88559 7.12247,3.53426 C7.12247,2.027 6.16094,0.753628 5.6412,0.155923 C5.45929,-0.0519743 5.14744,-0.0519743 4.96553,0.155923 C4.44579,0.753628 3.48426,2.05299 3.48426,3.53426 C3.48426,4.8596 4.23789,6.02902 4.75763,6.6787 L4.75763,8.7057 C4.54974,8.28991 4.28986,7.87411 3.92604,7.51029 C2.86057,6.47081 1.24936,6.23692 0.469748,6.21094 C0.209877,6.18495 -0.0240079,6.41883 0.00197931,6.70469 C0.0539537,7.48431 0.339813,9.06952 1.40529,10.135 C2.44477,11.1485 3.95203,11.3824 4.75763,11.4344 L4.75763,14.241 C4.54974,13.8252 4.28986,13.4094 3.92604,13.0456 C2.86057,12.0061 1.24936,11.7722 0.469748,11.7462 C0.209877,11.7202 -0.0240079,11.9541 0.00197931,12.24 C0.0539537,13.0196 0.339813,14.6048 1.40529,15.6703 C2.44477,16.6838 3.95203,16.9177 4.75763,16.9696 L4.75763,19.7762 C4.54974,19.3604 4.28986,18.9447 3.92604,18.5808 C2.86057,17.5413 1.24936,17.3075 0.469748,17.2815 C0.209877,17.2555 -0.0240079,17.4894 0.00197931,17.7752 C0.0539537,18.5548 0.339813,20.1401 1.40529,21.2055 C2.44477,22.219 3.95203,22.4529 4.75763,22.5049 L4.75763,24.246 C4.75763,24.5319 4.99152,24.7658 5.27738,24.7658 C5.56323,24.7658 5.79712,24.5319 5.79712,24.246 L5.79712,22.5049 C6.62871,22.4529 8.10998,22.219 9.14947,21.2055 C10.2149,20.166 10.4748,18.5808 10.5528,17.7752 C10.5788,17.5154 10.3449,17.2815 10.085,17.2815 C9.2794,17.3334 7.69418,17.5413 6.62871,18.5808 C6.26489,18.9447 6.00502,19.3604 5.79712,19.7762 L5.79712,16.9696 C6.6547,16.9177 8.16195,16.6838 9.20144,15.6703 Z" id="Shape"></path>
                <path d="M17.615,18.4011 C18.3881,17.6469 18.5766,16.4967 18.6332,15.9122 C18.6521,15.7237 18.4824,15.554 18.2938,15.554 C17.7093,15.5917 16.5592,15.7425 15.7861,16.4967 C15.5221,16.7607 15.3336,17.0624 15.1828,17.3641 L15.1828,15.3466 C15.7861,15.3089 16.8608,15.1392 17.615,14.4038 C18.3881,13.6496 18.5766,12.4995 18.6332,11.915 C18.6521,11.7264 18.4824,11.5567 18.2938,11.5567 C17.7093,11.5944 16.5592,11.7453 15.7861,12.4995 C15.5221,12.7635 15.3336,13.0651 15.1828,13.3668 L15.1828,11.8961 C15.5787,11.4059 16.1067,10.5763 16.1067,9.59583 C16.1067,8.50224 15.409,7.57835 15.0319,7.14468 C14.8999,6.99385 14.6737,6.99385 14.5417,7.14468 C14.1646,7.57835 13.467,8.52109 13.467,9.59583 C13.467,10.5574 14.0138,11.4059 14.3909,11.8773 L14.3909,13.348 C14.24,13.0463 14.0515,12.7446 13.7875,12.4806 C13.0144,11.7264 11.8454,11.5567 11.2798,11.5379 C11.0912,11.519 10.9215,11.6887 10.9404,11.8961 C10.9781,12.4618 11.1855,13.6119 11.9586,14.385 C12.7128,15.1203 13.8064,15.29 14.3909,15.3277 L14.3909,17.3641 C14.24,17.0624 14.0515,16.7607 13.7875,16.4967 C13.0144,15.7425 11.8454,15.5728 11.2798,15.554 C11.0912,15.5351 10.9215,15.7048 10.9404,15.9122 C10.9781,16.4779 11.1855,17.628 11.9586,18.4011 C12.7128,19.1364 13.8064,19.3061 14.3909,19.3438 L14.3909,21.3802 C14.24,21.0785 14.0515,20.7768 13.7875,20.5128 C13.0144,19.7586 11.8454,19.5889 11.2798,19.5701 C11.0912,19.5512 10.9215,19.7209 10.9404,19.9283 C10.9781,20.494 11.1855,21.6441 11.9586,22.4172 C12.7128,23.1525 13.8064,23.3222 14.3909,23.3599 L14.3909,24.6232 C14.3909,24.8306 14.5605,25.0003 14.768,25.0003 C14.9754,25.0003 15.1451,24.8306 15.1451,24.6232 L15.1451,23.3599 C15.7484,23.3222 16.8231,23.1525 17.5773,22.4172 C18.3504,21.663 18.5389,20.5128 18.5955,19.9283 C18.6144,19.7398 18.4447,19.5701 18.2561,19.5701 C17.6716,19.6078 16.5215,19.7586 15.7484,20.5128 C15.4844,20.7768 15.2959,21.0785 15.1451,21.3802 L15.1451,19.3438 C15.7673,19.3061 16.8608,19.1364 17.615,18.4011 Z" id="Shape"></path>
            </g>
        </g>
    </g>
</svg>