<svg width="19" height="19" viewBox="0 0 19 19" fill="none" xmlns="http://www.w3.org/2000/svg">
<circle cx="9.5" cy="9.5" r="9.5" fill="#006BA6"/>
<path d="M8.52523 11.3336L10.7226 10.7719C10.5905 10.6397 10.4748 10.3919 10.4748 10.111C10.4748 8.87191 13.0357 8.69017 13.0357 6.32756C13.0357 4.74147 11.6809 3.68408 9.50002 3.68408C8.14523 3.68408 6.77393 4.21278 5.86523 5.23713L7.45132 7.05452C7.91393 6.52582 8.55828 6.19539 9.1861 6.19539C9.89654 6.19539 10.1609 6.47626 10.1609 6.83973C10.1609 7.66582 8.01306 7.94669 8.01306 9.81365C8.01306 10.4415 8.21132 10.9536 8.52523 11.3336ZM9.53306 15.0676C10.3757 15.0676 11.0861 14.3571 11.0861 13.5145C11.0861 12.6719 10.3757 11.9615 9.53306 11.9615C8.69045 11.9615 7.98002 12.6719 7.98002 13.5145C7.98002 14.3571 8.69045 15.0676 9.53306 15.0676Z" fill="white"/>
</svg>
