<svg width="20" height="25" viewBox="0 0 20 25" fill="none" xmlns="http://www.w3.org/2000/svg">
<path d="M0.75389 0C0.553946 0 0.362191 0.0823102 0.220809 0.228823C0.0794276 0.375336 0 0.57405 0 0.78125V24.2188C0 24.426 0.0794276 24.6247 0.220809 24.7712C0.362191 24.9177 0.553946 25 0.75389 25H18.983C19.1829 25 19.3747 24.9177 19.516 24.7712C19.6574 24.6247 19.7368 24.426 19.7368 24.2188V0.78125C19.7368 0.57405 19.6574 0.375336 19.516 0.228823C19.3747 0.0823102 19.1829 0 18.983 0H0.75389ZM8.51896 2.01562C10.4274 2.01562 12.2577 2.80127 13.6072 4.19974C14.9567 5.5982 15.7148 7.49493 15.7148 9.47266H8.51896V2.01562ZM7.78768 4.875V10.2305H12.9556C12.8212 11.0761 12.4644 11.8669 11.9244 12.516C11.3845 13.1651 10.6822 13.6474 9.89492 13.9097C9.10762 14.172 8.26576 14.2043 7.46191 14.0029C6.65806 13.8016 5.92336 13.3744 5.33859 12.7684C4.75381 12.1625 4.34162 11.4011 4.14733 10.5681C3.95304 9.73504 3.98417 8.86263 4.23731 8.04676C4.49045 7.23089 4.95579 6.50316 5.58216 5.94358C6.20854 5.384 6.97168 5.01426 7.78768 4.875ZM15.5678 21.8008H4.16901C3.96907 21.8008 3.77731 21.7185 3.63593 21.572C3.49455 21.4254 3.41512 21.2267 3.41512 21.0195C3.41512 20.8123 3.49455 20.6136 3.63593 20.4671C3.77731 20.3206 3.96907 20.2383 4.16901 20.2383H15.5678C15.7678 20.2383 15.9595 20.3206 16.1009 20.4671C16.2423 20.6136 16.3217 20.8123 16.3217 21.0195C16.3217 21.2267 16.2423 21.4254 16.1009 21.572C15.9595 21.7185 15.7678 21.8008 15.5678 21.8008ZM15.5678 17.7734H4.16901C3.96907 17.7734 3.77731 17.6911 3.63593 17.5446C3.49455 17.3981 3.41512 17.1994 3.41512 16.9922C3.41512 16.785 3.49455 16.5863 3.63593 16.4398C3.77731 16.2932 3.96907 16.2109 4.16901 16.2109H15.5678C15.7678 16.2109 15.9595 16.2932 16.1009 16.4398C16.2423 16.5863 16.3217 16.785 16.3217 16.9922C16.3217 17.1994 16.2423 17.3981 16.1009 17.5446C15.9595 17.6911 15.7678 17.7734 15.5678 17.7734Z" fill="#76881D"/>
</svg>
