<svg width="19" height="25" viewBox="0 0 19 25" fill="none" xmlns="http://www.w3.org/2000/svg">
<path fill-rule="evenodd" clip-rule="evenodd" d="M18.0016 20.9708C15.8029 18.8871 13.8381 16.5178 12.2423 13.698H15.2429C15.3632 13.698 15.4661 13.631 15.5115 13.5227C15.5573 13.4143 15.5321 13.2971 15.4458 13.2152C13.7042 11.5642 12.1674 9.66259 10.9689 7.34933H13.3113C13.3942 7.34933 13.4651 7.3035 13.4964 7.22909C13.5274 7.15468 13.5102 7.07372 13.451 7.01747C11.6074 5.26942 10.0976 3.11362 9.25491 0.142272C9.23066 0.0571468 9.1533 0 9.06212 0C8.97125 0 8.89419 0.0571468 8.86994 0.142272C8.02754 3.11332 6.51803 5.26913 4.6739 7.01747C4.61465 7.07372 4.59715 7.15468 4.62877 7.22909C4.66039 7.3035 4.73069 7.34933 4.81389 7.34933H7.15659C5.95776 9.66259 4.42093 11.5642 2.67964 13.2152C2.59337 13.2971 2.5682 13.4146 2.61363 13.5227C2.65907 13.631 2.76191 13.698 2.88256 13.698H5.88285C4.28677 16.5178 2.32199 18.8871 0.123576 20.9708C0.00261935 21.0848 -0.032378 21.25 0.0311705 21.4015C0.094719 21.553 0.238701 21.6468 0.407856 21.6468H8.16845V25H9.9564V21.6468H17.717C17.8858 21.6468 18.0295 21.553 18.0937 21.4015C18.1575 21.2497 18.1222 21.0848 18.0016 20.9708Z" fill="#006BA6"/>
</svg>
