<svg width="45" height="45" viewBox="0 0 45 45" fill="none" xmlns="http://www.w3.org/2000/svg">
<circle cx="22.5" cy="22.5" r="22.5" fill="#76881D"/>
<path d="M13.2539 10C13.0539 10 12.8622 10.0823 12.7208 10.2288C12.5794 10.3753 12.5 10.574 12.5 10.7812V34.2188C12.5 34.426 12.5794 34.6247 12.7208 34.7712C12.8622 34.9177 13.0539 35 13.2539 35H31.483C31.6829 35 31.8747 34.9177 32.016 34.7712C32.1574 34.6247 32.2368 34.426 32.2368 34.2188V10.7812C32.2368 10.574 32.1574 10.3753 32.016 10.2288C31.8747 10.0823 31.6829 10 31.483 10H13.2539ZM21.019 12.0156C22.9274 12.0156 24.7577 12.8013 26.1072 14.1997C27.4567 15.5982 28.2148 17.4949 28.2148 19.4727H21.019V12.0156ZM20.2877 14.875V20.2305H25.4556C25.3212 21.0761 24.9644 21.8669 24.4244 22.516C23.8845 23.1651 23.1822 23.6474 22.3949 23.9097C21.6076 24.172 20.7658 24.2043 19.9619 24.0029C19.1581 23.8016 18.4234 23.3744 17.8386 22.7684C17.2538 22.1625 16.8416 21.4011 16.6473 20.5681C16.453 19.735 16.4842 18.8626 16.7373 18.0468C16.9905 17.2309 17.4558 16.5032 18.0822 15.9436C18.7085 15.384 19.4717 15.0143 20.2877 14.875ZM28.0678 31.8008H16.669C16.4691 31.8008 16.2773 31.7185 16.1359 31.572C15.9945 31.4254 15.9151 31.2267 15.9151 31.0195C15.9151 30.8123 15.9945 30.6136 16.1359 30.4671C16.2773 30.3206 16.4691 30.2383 16.669 30.2383H28.0678C28.2678 30.2383 28.4595 30.3206 28.6009 30.4671C28.7423 30.6136 28.8217 30.8123 28.8217 31.0195C28.8217 31.2267 28.7423 31.4254 28.6009 31.572C28.4595 31.7185 28.2678 31.8008 28.0678 31.8008ZM28.0678 27.7734H16.669C16.4691 27.7734 16.2773 27.6911 16.1359 27.5446C15.9945 27.3981 15.9151 27.1994 15.9151 26.9922C15.9151 26.785 15.9945 26.5863 16.1359 26.4398C16.2773 26.2932 16.4691 26.2109 16.669 26.2109H28.0678C28.2678 26.2109 28.4595 26.2932 28.6009 26.4398C28.7423 26.5863 28.8217 26.785 28.8217 26.9922C28.8217 27.1994 28.7423 27.3981 28.6009 27.5446C28.4595 27.6911 28.2678 27.7734 28.0678 27.7734Z" fill="white"/>
</svg>
