<svg width="154" height="39" viewBox="0 0 154 39" fill="none" xmlns="http://www.w3.org/2000/svg">
<path d="M53.2236 34L53.2955 33.3128L54.4781 33.0731L55.7645 22.8297L54.7018 22.6459L54.7977 21.8389H56.8352C57.2188 21.8389 57.5916 21.8176 57.9539 21.7749C58.3161 21.727 58.7076 21.703 59.1284 21.703C60.3056 21.703 61.2085 21.9587 61.8371 22.4701C62.471 22.9815 62.7959 23.7672 62.8119 24.8272C62.8279 25.6103 62.7054 26.3027 62.4444 26.9047C62.1833 27.5066 61.8265 28.0127 61.3737 28.4228C60.9262 28.8277 60.3989 29.1366 59.7916 29.3497C59.1897 29.5574 58.5505 29.6613 57.8739 29.6613C57.5171 29.6613 57.2374 29.6586 57.035 29.6533C56.8326 29.648 56.6594 29.64 56.5156 29.6293L56.1081 33.0731L57.7062 33.3049L57.6422 34H53.2236ZM56.6355 28.5826C56.8805 28.6252 57.1122 28.6545 57.3306 28.6705C57.549 28.6865 57.7568 28.6945 57.9539 28.6945C58.5291 28.6892 59.0139 28.6066 59.4081 28.4468C59.8076 28.2817 60.1299 28.042 60.3749 27.7277C60.6253 27.4081 60.8064 27.0192 60.9182 26.5611C61.0301 26.0977 61.0914 25.565 61.102 24.963C61.1073 24.5902 61.078 24.2572 61.0141 23.9643C60.9502 23.6713 60.833 23.4263 60.6625 23.2292C60.4921 23.0321 60.2604 22.8856 59.9674 22.7897C59.6797 22.6885 59.3122 22.6432 58.8647 22.6539C58.7635 22.6539 58.6517 22.6592 58.5291 22.6698C58.4066 22.6805 58.2788 22.6938 58.1456 22.7098C58.0124 22.7205 57.8819 22.7364 57.7541 22.7577C57.6263 22.7737 57.5091 22.795 57.4025 22.8217L56.6355 28.5826Z" fill="#3E4827"/>
<path d="M64.0264 33.0811C64.0264 33.0066 64.0291 32.9107 64.0344 32.7935C64.0451 32.6763 64.0584 32.5671 64.0744 32.4659L65.5366 22.1585L64.5538 21.8149L64.7216 21.1517L66.863 20.8161L67.2465 21.0319L65.6405 32.4898C65.6138 32.6816 65.6165 32.8308 65.6484 32.9373C65.6804 33.0438 65.7337 33.0971 65.8083 33.0971C65.8882 33.0971 65.992 33.0678 66.1199 33.0092C66.2477 32.9453 66.4288 32.8015 66.6632 32.5777L66.9109 33.0012C66.8789 33.0598 66.8044 33.153 66.6872 33.2809C66.57 33.4087 66.4262 33.5392 66.2557 33.6724C66.0852 33.8002 65.8882 33.9121 65.6644 34.008C65.446 34.1092 65.217 34.1598 64.9773 34.1598C64.6523 34.1598 64.4126 34.0772 64.2581 33.9121C64.1037 33.747 64.0264 33.47 64.0264 33.0811Z" fill="#3E4827"/>
<path d="M68.4211 30.708C68.4211 30.2925 68.4717 29.8584 68.5729 29.4056C68.6794 28.9475 68.8339 28.4974 69.0363 28.0553C69.2387 27.6078 69.4864 27.1817 69.7794 26.7768C70.0777 26.372 70.4186 26.0178 70.8021 25.7141C71.1857 25.4052 71.6118 25.1601 72.0806 24.979C72.5547 24.7979 73.066 24.7074 73.6147 24.7074C73.8811 24.7074 74.1554 24.7367 74.4377 24.7953C74.7254 24.8485 74.981 24.9124 75.2048 24.987L76.1716 24.7153L75.1249 32.4898C75.0982 32.7082 75.1142 32.8654 75.1728 32.9613C75.2314 33.0518 75.2953 33.0971 75.3646 33.0971C75.4391 33.0971 75.527 33.0731 75.6283 33.0252C75.7348 32.9773 75.8813 32.8787 76.0677 32.7296L76.3154 33.161C76.2888 33.209 76.2222 33.2889 76.1157 33.4007C76.0144 33.5126 75.8839 33.6245 75.7241 33.7363C75.5643 33.8482 75.3806 33.9467 75.1728 34.032C74.9651 34.1172 74.7467 34.1598 74.5176 34.1598C74.1927 34.1598 73.9343 34.0772 73.7426 33.9121C73.5508 33.747 73.4656 33.47 73.4869 33.0811L73.5428 32.5538C73.3883 32.7509 73.2125 32.9453 73.0154 33.1371C72.8237 33.3288 72.6159 33.5019 72.3922 33.6564C72.1685 33.8056 71.9314 33.9254 71.6811 34.016C71.4307 34.1119 71.175 34.1598 70.914 34.1598C70.4666 34.1598 70.083 34.0746 69.7634 33.9041C69.4491 33.7283 69.1908 33.4886 68.9884 33.185C68.7913 32.876 68.6474 32.5112 68.5569 32.0903C68.4663 31.6695 68.4211 31.2087 68.4211 30.708ZM71.2416 33.0172C71.476 33.0172 71.7104 32.9586 71.9448 32.8414C72.1791 32.7242 72.4055 32.5777 72.6239 32.402C72.8423 32.2208 73.0447 32.0238 73.2312 31.8107C73.4176 31.5976 73.5774 31.3979 73.7106 31.2114L74.3978 25.9379C74.2539 25.8473 74.0941 25.7834 73.9183 25.7461C73.7479 25.7088 73.5641 25.6902 73.367 25.6902C72.9888 25.6902 72.6452 25.7647 72.3363 25.9139C72.0273 26.063 71.753 26.2628 71.5133 26.5132C71.2736 26.7635 71.0632 27.0512 70.8821 27.3761C70.7063 27.701 70.5598 28.0446 70.4426 28.4068C70.3307 28.7637 70.2455 29.126 70.1869 29.4935C70.1336 29.8557 70.107 30.1993 70.107 30.5243C70.107 31.2966 70.1949 31.9066 70.3707 32.354C70.5518 32.7961 70.8421 33.0172 71.2416 33.0172Z" fill="#3E4827"/>
<path d="M78.2251 34L79.2638 26.3054L78.4808 25.834L78.6246 25.1229L80.5982 24.7074L80.9817 24.8991L80.8219 26.5931C81.035 26.3267 81.2667 26.079 81.5171 25.85C81.7727 25.6209 82.0391 25.4238 82.3161 25.2587C82.5984 25.0882 82.886 24.9551 83.179 24.8592C83.4773 24.758 83.7756 24.7074 84.0739 24.7074C84.3509 24.7074 84.6013 24.75 84.825 24.8352C85.0487 24.9151 85.2378 25.0509 85.3923 25.2427C85.5521 25.4291 85.6746 25.6768 85.7599 25.9858C85.8451 26.2894 85.8877 26.6676 85.8877 27.1204C85.8877 27.3175 85.8744 27.5359 85.8478 27.7756C85.8211 28.01 85.7865 28.2524 85.7439 28.5027C85.7013 28.7531 85.656 29.0034 85.6081 29.2538C85.5654 29.5042 85.5228 29.7412 85.4802 29.9649C85.4056 30.3751 85.3337 30.7986 85.2645 31.2354C85.1952 31.6722 85.1499 32.0957 85.1286 32.5058C85.118 32.6976 85.1233 32.8467 85.1446 32.9533C85.1713 33.0545 85.2219 33.1051 85.2964 33.1051C85.3657 33.1051 85.4509 33.0811 85.5521 33.0332C85.6587 32.9852 85.8051 32.8867 85.9916 32.7375L86.2393 33.161C86.2073 33.209 86.1381 33.2889 86.0315 33.4007C85.925 33.5126 85.7892 33.6271 85.624 33.7443C85.4589 33.8562 85.2725 33.9547 85.0647 34.04C84.8623 34.1252 84.6466 34.1678 84.4175 34.1678C84.0819 34.1678 83.8236 34.0879 83.6425 33.9281C83.4613 33.763 83.3841 33.486 83.4107 33.0971C83.4214 32.9107 83.44 32.7109 83.4667 32.4978C83.4933 32.2848 83.5253 32.0664 83.5626 31.8426C83.5998 31.6136 83.6398 31.3819 83.6824 31.1475C83.725 30.9131 83.765 30.6841 83.8023 30.4603C83.8449 30.2259 83.8902 29.9729 83.9381 29.7013C83.9914 29.4243 84.0393 29.1446 84.0819 28.8623C84.1299 28.58 84.1698 28.2976 84.2018 28.0153C84.2337 27.733 84.2497 27.4667 84.2497 27.2163C84.2497 26.9286 84.2284 26.7049 84.1858 26.5451C84.1432 26.38 84.0819 26.2575 84.002 26.1776C83.9274 26.0923 83.8342 26.0391 83.7224 26.0178C83.6105 25.9965 83.4853 25.9858 83.3468 25.9858C83.1497 25.9858 82.934 26.0364 82.6996 26.1376C82.4652 26.2335 82.2282 26.3693 81.9885 26.5451C81.7541 26.7209 81.5197 26.9286 81.2853 27.1684C81.0563 27.4027 80.8432 27.6584 80.6461 27.9354L79.8231 34H78.2251Z" fill="#3E4827"/>
<path d="M88.4126 32.7296C88.4126 32.7082 88.4126 32.679 88.4126 32.6417C88.4126 32.599 88.4153 32.5378 88.4206 32.4579C88.4259 32.378 88.4366 32.2741 88.4526 32.1463C88.4686 32.0131 88.4899 31.8426 88.5165 31.6349L89.2356 25.8899H88.2768L88.4366 25.1868L89.4194 24.8112C89.5099 24.71 89.6032 24.5769 89.6991 24.4117C89.7949 24.2466 89.8908 24.0655 89.9867 23.8684C90.0826 23.6713 90.1731 23.4715 90.2584 23.2691C90.3489 23.0614 90.4288 22.8669 90.4981 22.6858H91.2811L91.0094 24.7713H93.0869L92.9271 25.8899H90.8736L90.2104 30.8838C90.1678 31.1874 90.1332 31.4591 90.1066 31.6988C90.0852 31.9385 90.0746 32.1356 90.0746 32.2901C90.0746 32.4392 90.0826 32.5618 90.0986 32.6576C90.1199 32.7535 90.1545 32.8308 90.2024 32.8894C90.2557 32.9426 90.325 32.9799 90.4102 33.0012C90.5007 33.0225 90.6126 33.0332 90.7458 33.0332C90.8523 33.0332 90.9748 33.0119 91.1133 32.9693C91.2518 32.9213 91.393 32.8654 91.5368 32.8015C91.6806 32.7322 91.8165 32.6603 91.9443 32.5857C92.0775 32.5058 92.1867 32.4339 92.2719 32.37L92.4157 32.9932C92.3198 33.1104 92.176 33.2383 91.9843 33.3768C91.7978 33.5099 91.5874 33.6351 91.353 33.7523C91.1186 33.8695 90.8709 33.9654 90.6099 34.04C90.3542 34.1199 90.1092 34.1598 89.8748 34.1598C89.6777 34.1598 89.4886 34.1358 89.3075 34.0879C89.1317 34.0453 88.9773 33.968 88.8441 33.8562C88.7109 33.7443 88.6044 33.5978 88.5245 33.4167C88.4499 33.2303 88.4126 33.0012 88.4126 32.7296Z" fill="#3E4827"/>
<path d="M94.3973 33.0971C94.4239 32.7775 94.4692 32.3806 94.5331 31.9066C94.5971 31.4325 94.6743 30.8998 94.7649 30.3085C94.8554 29.7119 94.954 29.0674 95.0605 28.3749C95.1724 27.6771 95.2816 26.9446 95.3881 26.1776L94.2215 25.7621L94.3653 25.1149L96.8104 24.7074L97.2019 24.8991L96.0912 32.4898C96.0326 32.8947 96.0939 33.0971 96.275 33.0971C96.3602 33.0971 96.4668 33.0625 96.5946 32.9932C96.7225 32.924 96.8983 32.7828 97.122 32.5698L97.3777 33.0012C97.3404 33.0598 97.2631 33.153 97.146 33.2809C97.0288 33.4087 96.8823 33.5392 96.7065 33.6724C96.5307 33.8002 96.3309 33.9121 96.1072 34.008C95.8835 34.1092 95.6491 34.1598 95.4041 34.1598C95.0738 34.1598 94.8155 34.0799 94.629 33.9201C94.4479 33.7603 94.3707 33.486 94.3973 33.0971ZM96.5627 22.9255C96.4348 22.9255 96.3123 22.9016 96.1951 22.8536C96.0833 22.8004 95.9847 22.7338 95.8995 22.6539C95.8196 22.5686 95.753 22.4701 95.6997 22.3582C95.6518 22.241 95.6278 22.1185 95.6278 21.9907C95.6278 21.8309 95.6624 21.6791 95.7317 21.5352C95.8063 21.3914 95.8995 21.2636 96.0113 21.1517C96.1232 21.0398 96.2484 20.9519 96.3869 20.888C96.5254 20.8241 96.6612 20.7921 96.7944 20.7921C97.098 20.7921 97.3377 20.88 97.5135 21.0558C97.6946 21.2316 97.7852 21.442 97.7852 21.6871C97.7852 21.8469 97.7505 22.0013 97.6813 22.1505C97.6174 22.2996 97.5295 22.4328 97.4176 22.55C97.3058 22.6619 97.1752 22.7524 97.0261 22.8217C96.8823 22.8909 96.7278 22.9255 96.5627 22.9255Z" fill="#3E4827"/>
<path d="M99.3033 34L100.342 26.3054L99.559 25.834L99.7028 25.1229L101.676 24.7074L102.06 24.8991L101.9 26.5931C102.113 26.3267 102.345 26.079 102.595 25.85C102.851 25.6209 103.117 25.4238 103.394 25.2587C103.677 25.0882 103.964 24.9551 104.257 24.8592C104.556 24.758 104.854 24.7074 105.152 24.7074C105.429 24.7074 105.68 24.75 105.903 24.8352C106.127 24.9151 106.316 25.0509 106.471 25.2427C106.63 25.4291 106.753 25.6768 106.838 25.9858C106.923 26.2894 106.966 26.6676 106.966 27.1204C106.966 27.3175 106.953 27.5359 106.926 27.7756C106.899 28.01 106.865 28.2524 106.822 28.5027C106.78 28.7531 106.734 29.0034 106.686 29.2538C106.644 29.5042 106.601 29.7412 106.558 29.9649C106.484 30.3751 106.412 30.7986 106.343 31.2354C106.273 31.6722 106.228 32.0957 106.207 32.5058C106.196 32.6976 106.202 32.8467 106.223 32.9533C106.249 33.0545 106.3 33.1051 106.375 33.1051C106.444 33.1051 106.529 33.0811 106.63 33.0332C106.737 32.9852 106.883 32.8867 107.07 32.7375L107.318 33.161C107.286 33.209 107.216 33.2889 107.11 33.4007C107.003 33.5126 106.867 33.6271 106.702 33.7443C106.537 33.8562 106.351 33.9547 106.143 34.04C105.941 34.1252 105.725 34.1678 105.496 34.1678C105.16 34.1678 104.902 34.0879 104.721 33.9281C104.54 33.763 104.462 33.486 104.489 33.0971C104.5 32.9107 104.518 32.7109 104.545 32.4978C104.572 32.2848 104.604 32.0664 104.641 31.8426C104.678 31.6136 104.718 31.3819 104.761 31.1475C104.803 30.9131 104.843 30.6841 104.88 30.4603C104.923 30.2259 104.968 29.9729 105.016 29.7013C105.07 29.4243 105.118 29.1446 105.16 28.8623C105.208 28.58 105.248 28.2976 105.28 28.0153C105.312 27.733 105.328 27.4667 105.328 27.2163C105.328 26.9286 105.307 26.7049 105.264 26.5451C105.221 26.38 105.16 26.2575 105.08 26.1776C105.006 26.0923 104.912 26.0391 104.801 26.0178C104.689 25.9965 104.564 25.9858 104.425 25.9858C104.228 25.9858 104.012 26.0364 103.778 26.1376C103.543 26.2335 103.306 26.3693 103.067 26.5451C102.832 26.7209 102.598 26.9286 102.364 27.1684C102.135 27.4027 101.921 27.6584 101.724 27.9354L100.901 34H99.3033Z" fill="#3E4827"/>
<path d="M108.964 30.708C108.964 30.2925 109.014 29.8584 109.115 29.4056C109.222 28.9475 109.376 28.4974 109.579 28.0553C109.781 27.6078 110.029 27.1817 110.322 26.7768C110.62 26.372 110.961 26.0178 111.345 25.7141C111.728 25.4052 112.154 25.1601 112.623 24.979C113.097 24.7979 113.608 24.7074 114.157 24.7074C114.482 24.7074 114.796 24.742 115.1 24.8112C115.409 24.8805 115.675 24.9577 115.899 25.0429L116.874 24.7074L115.34 34.6153C115.244 35.2491 115.039 35.7845 114.724 36.2213C114.41 36.6581 114.045 37.0123 113.63 37.284C113.214 37.5557 112.775 37.7527 112.311 37.8753C111.848 37.9978 111.417 38.059 111.017 38.059C110.841 38.059 110.665 38.0511 110.49 38.0351C110.314 38.0191 110.146 37.9978 109.986 37.9711C109.832 37.9445 109.691 37.9126 109.563 37.8753C109.435 37.8433 109.331 37.8113 109.251 37.7794L109.651 36.3012C109.763 36.3545 109.896 36.4104 110.05 36.469C110.21 36.5276 110.383 36.5808 110.57 36.6288C110.761 36.6821 110.961 36.7247 111.169 36.7566C111.377 36.7886 111.584 36.8046 111.792 36.8046C112.128 36.8046 112.405 36.7806 112.623 36.7327C112.841 36.69 113.017 36.6075 113.15 36.485C113.289 36.3624 113.395 36.1947 113.47 35.9816C113.545 35.7685 113.608 35.4968 113.662 35.1666L114.021 32.9613C113.888 33.1158 113.736 33.2649 113.566 33.4087C113.395 33.5526 113.206 33.6804 112.999 33.7923C112.796 33.9041 112.578 33.992 112.343 34.0559C112.114 34.1252 111.869 34.1598 111.608 34.1598C111.161 34.1598 110.769 34.0746 110.434 33.9041C110.103 33.7283 109.829 33.4886 109.611 33.185C109.392 32.876 109.23 32.5112 109.123 32.0903C109.017 31.6695 108.964 31.2087 108.964 30.708ZM111.904 33.0172C112.144 33.0172 112.375 32.9746 112.599 32.8894C112.828 32.7988 113.044 32.6869 113.246 32.5538C113.449 32.4153 113.632 32.2635 113.798 32.0983C113.968 31.9279 114.109 31.7627 114.221 31.6029L115.036 26.0018C114.882 25.8846 114.708 25.8047 114.517 25.7621C114.33 25.7141 114.128 25.6902 113.909 25.6902C113.531 25.6902 113.188 25.7674 112.879 25.9219C112.57 26.071 112.295 26.2734 112.056 26.5291C111.816 26.7848 111.606 27.0805 111.424 27.416C111.249 27.7516 111.102 28.1005 110.985 28.4628C110.873 28.825 110.788 29.1925 110.729 29.5654C110.676 29.933 110.649 30.2792 110.649 30.6042C110.649 31.3819 110.761 31.9785 110.985 32.394C111.214 32.8095 111.52 33.0172 111.904 33.0172Z" fill="#3E4827"/>
<path d="M122.97 34L123.042 33.2489L124.992 33.0651L126.31 22.7018L123.785 22.8616L123.018 25.5863L122.091 25.6023L122.707 21.8389H131.88L131.344 25.6023H130.457L130.513 22.8696L127.948 22.7018L126.622 33.0651L128.619 33.2489L128.564 34H122.97Z" fill="#3E4827"/>
<path d="M131.967 30.4923C131.962 30.0075 132.007 29.5281 132.103 29.054C132.199 28.58 132.34 28.1298 132.527 27.7037C132.713 27.2722 132.942 26.8754 133.214 26.5132C133.486 26.1456 133.792 25.8287 134.133 25.5623C134.474 25.296 134.844 25.0882 135.243 24.9391C135.648 24.7846 136.074 24.7074 136.522 24.7074C137.033 24.7074 137.483 24.7899 137.872 24.9551C138.266 25.1202 138.597 25.3599 138.863 25.6742C139.135 25.9885 139.342 26.3747 139.486 26.8328C139.63 27.2855 139.707 27.8022 139.718 28.3829C139.729 28.8676 139.683 29.347 139.582 29.8211C139.486 30.2952 139.345 30.748 139.159 31.1795C138.972 31.6056 138.743 31.9998 138.471 32.362C138.2 32.7242 137.893 33.0385 137.553 33.3049C137.212 33.5712 136.839 33.7816 136.434 33.9361C136.034 34.0852 135.608 34.1598 135.156 34.1598C134.644 34.1598 134.191 34.0772 133.797 33.9121C133.408 33.747 133.081 33.5099 132.814 33.201C132.548 32.8867 132.343 32.5032 132.199 32.0504C132.055 31.5923 131.978 31.0729 131.967 30.4923ZM135.435 33.193C135.739 33.193 136.013 33.1237 136.258 32.9852C136.503 32.8414 136.722 32.6497 136.913 32.4099C137.105 32.1649 137.27 31.8826 137.409 31.563C137.553 31.2434 137.667 30.9078 137.752 30.5562C137.843 30.1993 137.907 29.8344 137.944 29.4615C137.987 29.0887 138.005 28.7318 138 28.3909C137.989 27.5439 137.835 26.8834 137.537 26.4093C137.244 25.9299 136.809 25.6902 136.234 25.6902C135.936 25.6902 135.662 25.7621 135.411 25.9059C135.166 26.0444 134.948 26.2335 134.756 26.4732C134.564 26.7129 134.399 26.9926 134.261 27.3122C134.122 27.6318 134.008 27.97 133.917 28.3269C133.826 28.6785 133.76 29.0407 133.717 29.4136C133.68 29.7865 133.667 30.1434 133.677 30.4843C133.688 31.3366 133.84 32.0024 134.133 32.4819C134.426 32.9559 134.86 33.193 135.435 33.193Z" fill="#3E4827"/>
<path d="M141.124 30.4923C141.119 30.0075 141.164 29.5281 141.26 29.054C141.356 28.58 141.497 28.1298 141.684 27.7037C141.87 27.2722 142.099 26.8754 142.371 26.5132C142.642 26.1456 142.949 25.8287 143.29 25.5623C143.63 25.296 144.001 25.0882 144.4 24.9391C144.805 24.7846 145.231 24.7074 145.679 24.7074C146.19 24.7074 146.64 24.7899 147.029 24.9551C147.423 25.1202 147.753 25.3599 148.02 25.6742C148.291 25.9885 148.499 26.3747 148.643 26.8328C148.787 27.2855 148.864 27.8022 148.875 28.3829C148.885 28.8676 148.84 29.347 148.739 29.8211C148.643 30.2952 148.502 30.748 148.315 31.1795C148.129 31.6056 147.9 31.9998 147.628 32.362C147.357 32.7242 147.05 33.0385 146.709 33.3049C146.368 33.5712 145.996 33.7816 145.591 33.9361C145.191 34.0852 144.765 34.1598 144.312 34.1598C143.801 34.1598 143.348 34.0772 142.954 33.9121C142.565 33.747 142.238 33.5099 141.971 33.201C141.705 32.8867 141.5 32.5032 141.356 32.0504C141.212 31.5923 141.135 31.0729 141.124 30.4923ZM144.592 33.193C144.896 33.193 145.17 33.1237 145.415 32.9852C145.66 32.8414 145.878 32.6497 146.07 32.4099C146.262 32.1649 146.427 31.8826 146.566 31.563C146.709 31.2434 146.824 30.9078 146.909 30.5562C147 30.1993 147.064 29.8344 147.101 29.4615C147.144 29.0887 147.162 28.7318 147.157 28.3909C147.146 27.5439 146.992 26.8834 146.693 26.4093C146.4 25.9299 145.966 25.6902 145.391 25.6902C145.093 25.6902 144.818 25.7621 144.568 25.9059C144.323 26.0444 144.105 26.2335 143.913 26.4732C143.721 26.7129 143.556 26.9926 143.417 27.3122C143.279 27.6318 143.164 27.97 143.074 28.3269C142.983 28.6785 142.917 29.0407 142.874 29.4136C142.837 29.7865 142.823 30.1434 142.834 30.4843C142.845 31.3366 142.997 32.0024 143.29 32.4819C143.583 32.9559 144.017 33.193 144.592 33.193Z" fill="#3E4827"/>
<path d="M150.72 33.0811C150.72 33.0066 150.723 32.9107 150.728 32.7935C150.739 32.6763 150.752 32.5671 150.768 32.4659L152.231 22.1585L151.248 21.8149L151.416 21.1517L153.557 20.8161L153.941 21.0319L152.335 32.4898C152.308 32.6816 152.311 32.8308 152.342 32.9373C152.374 33.0438 152.428 33.0971 152.502 33.0971C152.582 33.0971 152.686 33.0678 152.814 33.0092C152.942 32.9453 153.123 32.8015 153.357 32.5777L153.605 33.0012C153.573 33.0598 153.498 33.153 153.381 33.2809C153.264 33.4087 153.12 33.5392 152.95 33.6724C152.779 33.8002 152.582 33.9121 152.358 34.008C152.14 34.1092 151.911 34.1598 151.671 34.1598C151.346 34.1598 151.107 34.0772 150.952 33.9121C150.798 33.747 150.72 33.47 150.72 33.0811Z" fill="#3E4827"/>
<path d="M2.97783 8.914H5.51583C6.90183 8.914 7.81983 8.572 8.53983 7.816C9.22383 7.096 9.56583 6.142 9.56583 5.044C9.56583 3.748 9.09783 2.65 8.26983 1.912C7.49583 1.228 6.63183 0.993995 4.99383 0.993995H0.277832V13H2.97783V8.914ZM2.97783 6.61V3.298H5.10183C6.16383 3.298 6.81183 3.91 6.81183 4.954C6.81183 5.98 6.16383 6.61 5.10183 6.61H2.97783Z" fill="#3E4827"/>
<path d="M13.8926 8.194H15.6926C17.0786 8.194 17.7266 8.842 17.8346 10.318L17.9426 11.956C17.9786 12.568 18.0686 12.748 18.3926 13H21.0386C20.6966 12.496 20.6066 12.226 20.5526 11.434L20.4626 9.724C20.3726 8.14 19.9586 7.51 18.7706 7.132C20.1206 6.628 20.7686 5.692 20.7686 4.234C20.7686 3.154 20.3546 2.254 19.6166 1.714C18.8966 1.192 18.0326 0.993995 16.4846 0.993995H11.2466V13H13.8926V8.194ZM13.8926 6.07V3.298H16.5386C17.5286 3.298 18.0686 3.802 18.0686 4.684C18.0686 5.566 17.5286 6.07 16.5386 6.07H13.8926Z" fill="#3E4827"/>
<path d="M29.7831 10.588L30.4311 13H33.4911L29.6751 0.993995H26.3091L22.1151 13H25.0491L25.8051 10.588H29.7831ZM29.1891 8.374H26.4711L27.9291 3.676L29.1891 8.374Z" fill="#3E4827"/>
<path d="M37.4661 0.993995H34.7661V13H37.4661V0.993995Z" fill="#3E4827"/>
<path d="M42.6504 8.194H44.4504C45.8364 8.194 46.4844 8.842 46.5924 10.318L46.7004 11.956C46.7364 12.568 46.8264 12.748 47.1504 13H49.7964C49.4544 12.496 49.3644 12.226 49.3104 11.434L49.2204 9.724C49.1304 8.14 48.7164 7.51 47.5284 7.132C48.8784 6.628 49.5264 5.692 49.5264 4.234C49.5264 3.154 49.1124 2.254 48.3744 1.714C47.6544 1.192 46.7904 0.993995 45.2424 0.993995H40.0044V13H42.6504V8.194ZM42.6504 6.07V3.298H45.2964C46.2864 3.298 46.8264 3.802 46.8264 4.684C46.8264 5.566 46.2864 6.07 45.2964 6.07H42.6504Z" fill="#3E4827"/>
<path d="M54.5696 0.993995H51.8696V13H54.5696V0.993995Z" fill="#3E4827"/>
<path d="M66.0539 0.993995H57.1079V13H66.1619V10.696H59.8079V7.762H65.2619V5.638H59.8079V3.298H66.0539V0.993995Z" fill="#3E4827"/>
<path d="M80.7615 6.646C80.7075 7.456 80.4915 8.158 80.1675 8.554L78.7095 6.628C80.2935 5.44 80.7255 4.81 80.7255 3.712C80.7255 2.056 79.3575 0.813995 77.5215 0.813995C75.7575 0.813995 74.4615 2.002 74.4615 3.604C74.4615 4.432 74.8575 5.314 75.6315 6.232C73.7055 7.438 72.9855 8.446 72.9855 9.904C72.9855 11.848 74.4975 13.234 76.5855 13.234C77.7915 13.234 78.8535 12.856 80.0415 12.01L80.8155 13H83.6595L81.5715 10.372C82.3455 9.184 82.7415 8.068 82.9035 6.646H80.7615ZM77.4675 5.098C76.8735 4.36 76.6575 3.982 76.6575 3.622C76.6575 3.136 77.0535 2.794 77.6295 2.794C78.2235 2.794 78.6195 3.172 78.6195 3.73C78.6195 4.234 78.2775 4.63 77.4675 5.098ZM78.7275 10.282C78.0615 10.894 77.4135 11.2 76.7835 11.2C75.9015 11.2 75.2715 10.642 75.2715 9.85C75.2715 9.112 75.7035 8.626 76.9455 7.942L78.7275 10.282Z" fill="#3E4827"/>
<path d="M95.3915 3.298H99.0275V0.993995H89.0555V3.298H92.6915V13H95.3915V3.298Z" fill="#3E4827"/>
<path d="M103.137 8.194H104.937C106.323 8.194 106.971 8.842 107.079 10.318L107.187 11.956C107.223 12.568 107.313 12.748 107.637 13H110.283C109.941 12.496 109.851 12.226 109.797 11.434L109.707 9.724C109.617 8.14 109.203 7.51 108.015 7.132C109.365 6.628 110.013 5.692 110.013 4.234C110.013 3.154 109.599 2.254 108.861 1.714C108.141 1.192 107.277 0.993995 105.729 0.993995H100.491V13H103.137V8.194ZM103.137 6.07V3.298H105.783C106.773 3.298 107.313 3.802 107.313 4.684C107.313 5.566 106.773 6.07 105.783 6.07H103.137Z" fill="#3E4827"/>
<path d="M121.302 0.993995H112.356V13H121.41V10.696H115.056V7.762H120.51V5.638H115.056V3.298H121.302V0.993995Z" fill="#3E4827"/>
<path d="M132.341 0.993995H123.395V13H132.449V10.696H126.095V7.762H131.549V5.638H126.095V3.298H132.341V0.993995Z" fill="#3E4827"/>
</svg>
