<?xml version="1.0" encoding="UTF-8"?>
<svg width="45px" height="45px" viewBox="0 0 45 45" version="1.1" xmlns="http://www.w3.org/2000/svg" xmlns:xlink="http://www.w3.org/1999/xlink">
    <!-- Generator: Sketch 51.3 (57544) - http://www.bohemiancoding.com/sketch -->
    <title>Group</title>
    <desc>Created with Sketch.</desc>
    <defs></defs>
    <g id="Page-1" stroke="none" stroke-width="1" fill="none" fill-rule="evenodd">
        <g id="Group">
            <circle id="Oval" fill="#FFFFFF" cx="22.5" cy="22.5" r="22.5"></circle>
            <g id="report_active" transform="translate(13.000000, 10.000000)" fill="#006BA6" fill-rule="nonzero">
                <path d="M0.75389,0 C0.553946,0 0.362191,0.0823102 0.220809,0.228823 C0.0794276,0.375336 0,0.57405 0,0.78125 L0,24.2188 C0,24.426 0.0794276,24.6247 0.220809,24.7712 C0.362191,24.9177 0.553946,25 0.75389,25 L18.983,25 C19.1829,25 19.3747,24.9177 19.516,24.7712 C19.6574,24.6247 19.7368,24.426 19.7368,24.2188 L19.7368,0.78125 C19.7368,0.57405 19.6574,0.375336 19.516,0.228823 C19.3747,0.0823102 19.1829,0 18.983,0 L0.75389,0 Z M8.51896,2.01562 C10.4274,2.01562 12.2577,2.80127 13.6072,4.19974 C14.9567,5.5982 15.7148,7.49493 15.7148,9.47266 L8.51896,9.47266 L8.51896,2.01562 Z M7.78768,4.875 L7.78768,10.2305 L12.9556,10.2305 C12.8212,11.0761 12.4644,11.8669 11.9244,12.516 C11.3845,13.1651 10.6822,13.6474 9.89492,13.9097 C9.10762,14.172 8.26576,14.2043 7.46191,14.0029 C6.65806,13.8016 5.92336,13.3744 5.33859,12.7684 C4.75381,12.1625 4.34162,11.4011 4.14733,10.5681 C3.95304,9.73504 3.98417,8.86263 4.23731,8.04676 C4.49045,7.23089 4.95579,6.50316 5.58216,5.94358 C6.20854,5.384 6.97168,5.01426 7.78768,4.875 Z M15.5678,21.8008 L4.16901,21.8008 C3.96907,21.8008 3.77731,21.7185 3.63593,21.572 C3.49455,21.4254 3.41512,21.2267 3.41512,21.0195 C3.41512,20.8123 3.49455,20.6136 3.63593,20.4671 C3.77731,20.3206 3.96907,20.2383 4.16901,20.2383 L15.5678,20.2383 C15.7678,20.2383 15.9595,20.3206 16.1009,20.4671 C16.2423,20.6136 16.3217,20.8123 16.3217,21.0195 C16.3217,21.2267 16.2423,21.4254 16.1009,21.572 C15.9595,21.7185 15.7678,21.8008 15.5678,21.8008 Z M15.5678,17.7734 L4.16901,17.7734 C3.96907,17.7734 3.77731,17.6911 3.63593,17.5446 C3.49455,17.3981 3.41512,17.1994 3.41512,16.9922 C3.41512,16.785 3.49455,16.5863 3.63593,16.4398 C3.77731,16.2932 3.96907,16.2109 4.16901,16.2109 L15.5678,16.2109 C15.7678,16.2109 15.9595,16.2932 16.1009,16.4398 C16.2423,16.5863 16.3217,16.785 16.3217,16.9922 C16.3217,17.1994 16.2423,17.3981 16.1009,17.5446 C15.9595,17.6911 15.7678,17.7734 15.5678,17.7734 Z" id="Shape"></path>
            </g>
        </g>
    </g>
</svg>