<svg width="36" height="36" viewBox="0 0 36 36" fill="none" xmlns="http://www.w3.org/2000/svg">
<circle cx="18" cy="18" r="18" fill="#CAC7A7"/>
<path d="M15.8565 18.1217C16.3616 18.0936 16.6142 18.0936 16.979 18.0936C18.9994 18.0936 19.9815 18.9635 19.9815 20.7314C19.9815 22.4151 18.9713 23.4814 17.3718 23.4814C16.3616 23.4814 15.5478 23.0605 15.0427 22.2748C14.706 21.7697 14.5937 21.2365 14.5657 20.1421H10.7773C10.8335 24.3233 13.2748 26.7646 17.4279 26.7646C21.3846 26.7646 24.1066 24.2952 24.1066 20.6753C24.1066 18.6268 23.2928 17.364 21.4688 16.5222C22.928 15.54 23.6296 14.3334 23.6296 12.6777C23.6296 9.61901 21.1321 7.48633 17.5402 7.48633C13.5274 7.48633 11.2263 9.73126 11.1421 13.7721H14.8743C14.8743 12.79 14.9585 12.3129 15.2391 11.8639C15.6881 11.1343 16.53 10.6854 17.5121 10.6854C18.9152 10.6854 19.8974 11.5833 19.8974 12.9022C19.8974 14.4175 18.803 15.2875 16.8948 15.2875C16.5861 15.2875 16.4738 15.2875 15.8565 15.2594V18.1217Z" fill="white"/>
</svg>
