<svg width="36" height="36" viewBox="0 0 36 36" fill="none" xmlns="http://www.w3.org/2000/svg">
<circle cx="18" cy="18" r="18" fill="#CAC7A7"/>
<path d="M24.1073 23.0325H15.9133C16.3623 22.4151 16.8394 21.9942 18.2144 21.012C20.768 19.16 21.3012 18.7671 22.0027 18.0936C23.49 16.6625 24.1354 15.2313 24.1354 13.4634C24.1354 9.92769 21.4976 7.48633 17.6251 7.48633C15.1276 7.48633 13.3036 8.3843 12.125 10.1802C11.4235 11.2466 11.1148 12.5094 11.0587 14.4456H14.7909C14.847 13.3512 14.9592 12.79 15.1837 12.3129C15.6047 11.443 16.4465 10.9379 17.4848 10.9379C18.972 10.9379 19.9823 11.9201 19.9823 13.3793C19.9823 14.7262 19.1965 15.9329 17.3445 17.364C12.2934 21.2085 11.199 22.7238 10.75 26.3998H24.1073V23.0325Z" fill="white"/>
</svg>
