<svg width="45" height="45" viewBox="0 0 45 45" fill="none" xmlns="http://www.w3.org/2000/svg">
<circle cx="22.5" cy="22.5" r="22.5" fill="#CAC7A7"/>
<path d="M19.8216 22.6521C20.453 22.617 20.7687 22.617 21.2247 22.617C23.7502 22.617 24.9779 23.7044 24.9779 25.9143C24.9779 28.0189 23.7151 29.3518 21.7158 29.3518C20.453 29.3518 19.4357 28.8256 18.8044 27.8435C18.3834 27.2121 18.2431 26.5456 18.2081 25.1776H13.4727C13.5428 30.4041 16.5945 33.4558 21.7859 33.4558C26.7318 33.4558 30.1342 30.369 30.1342 25.8441C30.1342 23.2835 29.117 21.705 26.837 20.6527C28.661 19.425 29.5379 17.9167 29.5379 15.8472C29.5379 12.0238 26.4161 9.35791 21.9262 9.35791C16.9102 9.35791 14.0339 12.1641 13.9287 17.2152H18.5939C18.5939 15.9875 18.6991 15.3912 19.0499 14.8299C19.6111 13.9179 20.6634 13.3567 21.8911 13.3567C23.645 13.3567 24.8727 14.4792 24.8727 16.1278C24.8727 18.0219 23.5047 19.1093 21.1194 19.1093C20.7336 19.1093 20.5933 19.1093 19.8216 19.0742V22.6521Z" fill="white"/>
</svg>
