<svg width="45" height="45" viewBox="0 0 45 45" fill="none" xmlns="http://www.w3.org/2000/svg">
<circle cx="22.5" cy="22.5" r="22.5" fill="#CAC7A7"/>
<path d="M30.1348 28.7908H19.8923C20.4536 28.0191 21.0499 27.4929 22.7686 26.2652C25.9606 23.9501 26.6271 23.4591 27.504 22.6172C29.3631 20.8283 30.1699 19.0394 30.1699 16.8295C30.1699 12.4098 26.8726 9.3581 22.032 9.3581C18.9102 9.3581 16.6302 10.4806 15.1569 12.7255C14.28 14.0584 13.8942 15.6369 13.824 18.0572H18.4892C18.5594 16.6892 18.6997 15.9877 18.9803 15.3913C19.5065 14.304 20.5588 13.6726 21.8566 13.6726C23.7157 13.6726 24.9785 14.9003 24.9785 16.7243C24.9785 18.408 23.9963 19.9163 21.6813 21.7052C15.3674 26.5108 13.9994 28.4049 13.4382 33H30.1348V28.7908Z" fill="white"/>
</svg>
