<svg width="45" height="45" viewBox="0 0 45 45" fill="none" xmlns="http://www.w3.org/2000/svg">
<circle cx="22.5" cy="22.5" r="22.5" fill="white"/>
<path fill-rule="evenodd" clip-rule="evenodd" d="M31.3346 30.5119C29.1359 28.4508 27.1711 26.1073 25.5753 23.3181H28.5759C28.6963 23.3181 28.7991 23.2519 28.8445 23.1447C28.8903 23.0376 28.8651 22.9216 28.7788 22.8406C27.0372 21.2075 25.5004 19.3266 24.3019 17.0385H26.6443C26.7272 17.0385 26.7981 16.9931 26.8294 16.9195C26.8604 16.8459 26.8432 16.7658 26.784 16.7102C24.9404 14.9812 23.4306 12.8488 22.5879 9.90974C22.5637 9.82554 22.4863 9.76901 22.3951 9.76901C22.3043 9.76901 22.2272 9.82554 22.2029 9.90974C21.3605 12.8485 19.851 14.9809 18.0069 16.7102C17.9477 16.7658 17.9302 16.8459 17.9618 16.9195C17.9934 16.9931 18.0637 17.0385 18.1469 17.0385H20.4896C19.2908 19.3266 17.7539 21.2075 16.0126 22.8406C15.9264 22.9216 15.9012 23.0378 15.9466 23.1447C15.9921 23.2519 16.0949 23.3181 16.2156 23.3181H19.2159C17.6198 26.1073 15.655 28.4508 13.4566 30.5119C13.3356 30.6247 13.3006 30.7881 13.3642 30.9379C13.4277 31.0878 13.5717 31.1805 13.7409 31.1805H21.5015V34.4973H23.2894V31.1805H31.05C31.2189 31.1805 31.3625 31.0878 31.4267 30.9379C31.4905 30.7878 31.4552 30.6247 31.3346 30.5119Z" fill="#006BA6"/>
</svg>
